<mxfile host="app.diagrams.net" modified="2022-05-17T02:57:19.680Z" agent="5.0 (X11; Linux x86_64) AppleWebKit/537.36 (KHTML, like Gecko) Chrome/101.0.4951.64 Safari/537.36 Edg/101.0.1210.47" etag="e_3fef0aiBFE2WhYLjlp" version="18.0.5" type="github">
  <diagram id="yWyrMKbGOlptVC39wbAz" name="Page-1">
    <mxGraphModel dx="3703" dy="1883" grid="1" gridSize="10" guides="1" tooltips="1" connect="1" arrows="1" fold="1" page="1" pageScale="1" pageWidth="1200" pageHeight="600" math="1" shadow="0">
      <root>
        <mxCell id="0" />
        <mxCell id="1" parent="0" />
        <mxCell id="2lD2j4Fp4vpnpTw80fRY-1" value="" style="rounded=0;whiteSpace=wrap;html=1;imageWidth=24;arcSize=1;strokeColor=none;fillColor=#F5F7FA;hachureGap=4;" vertex="1" parent="1">
          <mxGeometry x="-1080" y="-560" width="894" height="532" as="geometry" />
        </mxCell>
        <mxCell id="2lD2j4Fp4vpnpTw80fRY-2" value="Kubernetes容器服务" style="rounded=0;whiteSpace=wrap;html=1;sketch=0;fillColor=#6952C4;strokeColor=none;fontColor=#FFFFFF;fontStyle=1;shadow=0;arcSize=10;absoluteArcSize=0;fontSize=14;hachureGap=4;" vertex="1" parent="1">
          <mxGeometry x="-1078" y="-600" width="891" height="40" as="geometry" />
        </mxCell>
        <mxCell id="2lD2j4Fp4vpnpTw80fRY-5" value="容器编排与管理" style="rounded=0;whiteSpace=wrap;html=1;shadow=1;fillColor=#ffffff;strokeColor=#6952C4;fontSize=14;fontStyle=1;fontColor=#6952C4;hachureGap=4;" vertex="1" parent="1">
          <mxGeometry x="-1049" y="-542" width="511" height="30" as="geometry" />
        </mxCell>
        <mxCell id="2lD2j4Fp4vpnpTw80fRY-6" value="" style="rounded=0;whiteSpace=wrap;html=1;fillColor=#ffffff;strokeColor=#6952C4;shadow=1;hachureGap=4;" vertex="1" parent="1">
          <mxGeometry x="-1049" y="-512" width="512" height="465" as="geometry" />
        </mxCell>
        <mxCell id="2lD2j4Fp4vpnpTw80fRY-7" value="运维管理" style="rounded=0;whiteSpace=wrap;html=1;shadow=1;fillColor=#ffffff;strokeColor=#6952C4;fontSize=14;fontStyle=1;fontColor=#6952C4;hachureGap=4;" vertex="1" parent="1">
          <mxGeometry x="-499" y="-542" width="282" height="30" as="geometry" />
        </mxCell>
        <mxCell id="2lD2j4Fp4vpnpTw80fRY-8" value="" style="rounded=0;whiteSpace=wrap;html=1;fillColor=#ffffff;strokeColor=#6952C4;shadow=1;hachureGap=4;" vertex="1" parent="1">
          <mxGeometry x="-498" y="-512" width="281" height="466" as="geometry" />
        </mxCell>
        <mxCell id="2lD2j4Fp4vpnpTw80fRY-13" value="" style="rounded=0;whiteSpace=wrap;html=1;shadow=0;fontSize=14;fontColor=#6952C4;strokeColor=#6952C4;fillColor=#F6F5FC;hachureGap=4;" vertex="1" parent="1">
          <mxGeometry x="-1025" y="-495" width="195" height="268" as="geometry" />
        </mxCell>
        <mxCell id="2lD2j4Fp4vpnpTw80fRY-14" value="Kubernetes集群" style="text;html=1;resizable=0;autosize=1;align=left;verticalAlign=middle;points=[];fillColor=none;strokeColor=none;rounded=0;fontColor=#6952C4;fontStyle=1;fontSize=14;hachureGap=4;" vertex="1" parent="1">
          <mxGeometry x="-999" y="-474" width="115" height="21" as="geometry" />
        </mxCell>
        <mxCell id="2lD2j4Fp4vpnpTw80fRY-16" value="" style="rounded=0;whiteSpace=wrap;html=1;shadow=0;fontSize=14;fontColor=#6952C4;strokeColor=#6952C4;fillColor=#F6F5FC;hachureGap=4;" vertex="1" parent="1">
          <mxGeometry x="-734" y="-495" width="182" height="261" as="geometry" />
        </mxCell>
        <mxCell id="2lD2j4Fp4vpnpTw80fRY-17" value="Kubernetets集群n" style="text;html=1;resizable=0;autosize=1;align=left;verticalAlign=middle;points=[];fillColor=none;strokeColor=none;rounded=0;fontColor=#6952C4;fontStyle=1;fontSize=14;hachureGap=4;" vertex="1" parent="1">
          <mxGeometry x="-721" y="-468" width="128" height="21" as="geometry" />
        </mxCell>
        <mxCell id="2lD2j4Fp4vpnpTw80fRY-19" value="应用编排" style="rounded=0;whiteSpace=wrap;html=1;shadow=0;fontSize=14;fontColor=#6952C4;strokeColor=#6952C4;fillColor=#F6F5FC;hachureGap=4;" vertex="1" parent="1">
          <mxGeometry x="-1025" y="-200" width="101" height="34" as="geometry" />
        </mxCell>
        <mxCell id="2lD2j4Fp4vpnpTw80fRY-20" value="滚动升级" style="rounded=0;whiteSpace=wrap;html=1;shadow=0;fontSize=14;fontColor=#6952C4;strokeColor=#6952C4;fillColor=#F6F5FC;hachureGap=4;" vertex="1" parent="1">
          <mxGeometry x="-1025" y="-152" width="102" height="34" as="geometry" />
        </mxCell>
        <mxCell id="2lD2j4Fp4vpnpTw80fRY-22" value="定时任务" style="rounded=0;whiteSpace=wrap;html=1;shadow=0;fontSize=14;fontColor=#6952C4;strokeColor=#6952C4;fillColor=#F6F5FC;hachureGap=4;" vertex="1" parent="1">
          <mxGeometry x="-1024.5" y="-102" width="101" height="34" as="geometry" />
        </mxCell>
        <mxCell id="2lD2j4Fp4vpnpTw80fRY-23" value="服务发现" style="rounded=0;whiteSpace=wrap;html=1;shadow=0;fontSize=14;fontColor=#6952C4;strokeColor=#6952C4;fillColor=#F6F5FC;hachureGap=4;" vertex="1" parent="1">
          <mxGeometry x="-901" y="-200" width="101" height="34" as="geometry" />
        </mxCell>
        <mxCell id="2lD2j4Fp4vpnpTw80fRY-24" value="持久存储" style="rounded=0;whiteSpace=wrap;html=1;shadow=0;fontSize=14;fontColor=#6952C4;strokeColor=#6952C4;fillColor=#F6F5FC;hachureGap=4;" vertex="1" parent="1">
          <mxGeometry x="-901" y="-152" width="102" height="34" as="geometry" />
        </mxCell>
        <mxCell id="2lD2j4Fp4vpnpTw80fRY-25" value="密钥管理" style="rounded=0;whiteSpace=wrap;html=1;shadow=0;fontSize=14;fontColor=#6952C4;strokeColor=#6952C4;fillColor=#F6F5FC;hachureGap=4;" vertex="1" parent="1">
          <mxGeometry x="-900.5" y="-102" width="101" height="34" as="geometry" />
        </mxCell>
        <mxCell id="2lD2j4Fp4vpnpTw80fRY-26" value="弹性伸缩" style="rounded=0;whiteSpace=wrap;html=1;shadow=0;fontSize=14;fontColor=#6952C4;strokeColor=#6952C4;fillColor=#F6F5FC;hachureGap=4;" vertex="1" parent="1">
          <mxGeometry x="-783" y="-201" width="101" height="34" as="geometry" />
        </mxCell>
        <mxCell id="2lD2j4Fp4vpnpTw80fRY-27" value="健康检查" style="rounded=0;whiteSpace=wrap;html=1;shadow=0;fontSize=14;fontColor=#6952C4;strokeColor=#6952C4;fillColor=#F6F5FC;hachureGap=4;" vertex="1" parent="1">
          <mxGeometry x="-783" y="-153" width="102" height="34" as="geometry" />
        </mxCell>
        <mxCell id="2lD2j4Fp4vpnpTw80fRY-28" value="配置检查" style="rounded=0;whiteSpace=wrap;html=1;shadow=0;fontSize=14;fontColor=#6952C4;strokeColor=#6952C4;fillColor=#F6F5FC;hachureGap=4;" vertex="1" parent="1">
          <mxGeometry x="-782.5" y="-103" width="101" height="34" as="geometry" />
        </mxCell>
        <mxCell id="2lD2j4Fp4vpnpTw80fRY-29" value="容器调度" style="rounded=0;whiteSpace=wrap;html=1;shadow=0;fontSize=14;fontColor=#6952C4;strokeColor=#6952C4;fillColor=#F6F5FC;hachureGap=4;" vertex="1" parent="1">
          <mxGeometry x="-661" y="-202" width="101" height="34" as="geometry" />
        </mxCell>
        <mxCell id="2lD2j4Fp4vpnpTw80fRY-30" value="故障自愈" style="rounded=0;whiteSpace=wrap;html=1;shadow=0;fontSize=14;fontColor=#6952C4;strokeColor=#6952C4;fillColor=#F6F5FC;hachureGap=4;" vertex="1" parent="1">
          <mxGeometry x="-661" y="-154" width="102" height="34" as="geometry" />
        </mxCell>
        <mxCell id="2lD2j4Fp4vpnpTw80fRY-31" value="版本回滚" style="rounded=0;whiteSpace=wrap;html=1;shadow=0;fontSize=14;fontColor=#6952C4;strokeColor=#6952C4;fillColor=#F6F5FC;hachureGap=4;" vertex="1" parent="1">
          <mxGeometry x="-660.5" y="-104" width="101" height="34" as="geometry" />
        </mxCell>
        <mxCell id="2lD2j4Fp4vpnpTw80fRY-33" value="" style="rounded=0;whiteSpace=wrap;html=1;shadow=0;fontSize=14;fontColor=#6952C4;strokeColor=none;fillColor=#D6CCFF;hachureGap=4;" vertex="1" parent="1">
          <mxGeometry x="-467.5" y="-495" width="219" height="255" as="geometry" />
        </mxCell>
        <mxCell id="2lD2j4Fp4vpnpTw80fRY-38" value="日志管理" style="rounded=0;whiteSpace=wrap;html=1;shadow=0;fontSize=14;fontColor=#6952C4;strokeColor=#6952C4;fillColor=#F6F5FC;hachureGap=4;" vertex="1" parent="1">
          <mxGeometry x="-460.5" y="-202" width="212" height="34" as="geometry" />
        </mxCell>
        <mxCell id="2lD2j4Fp4vpnpTw80fRY-39" value="监控告警" style="rounded=0;whiteSpace=wrap;html=1;shadow=0;fontSize=14;fontColor=#6952C4;strokeColor=#6952C4;fillColor=#F6F5FC;hachureGap=4;" vertex="1" parent="1">
          <mxGeometry x="-457" y="-136" width="212" height="34" as="geometry" />
        </mxCell>
        <mxCell id="2lD2j4Fp4vpnpTw80fRY-40" value="云主机" style="rounded=0;whiteSpace=wrap;html=1;shadow=0;fontSize=14;fontColor=#6952C4;strokeColor=none;fillColor=#D6CCFF;hachureGap=4;" vertex="1" parent="1">
          <mxGeometry x="-1080" y="-18" width="894" height="36" as="geometry" />
        </mxCell>
        <mxCell id="2lD2j4Fp4vpnpTw80fRY-41" value="节点扩容" style="rounded=0;whiteSpace=wrap;html=1;shadow=0;fontSize=14;fontColor=#6952C4;strokeColor=#6952C4;fillColor=#F6F5FC;hachureGap=4;" vertex="1" parent="1">
          <mxGeometry x="-409" y="-468" width="101" height="34" as="geometry" />
        </mxCell>
        <mxCell id="2lD2j4Fp4vpnpTw80fRY-42" value="一键部署" style="rounded=0;whiteSpace=wrap;html=1;shadow=0;fontSize=14;fontColor=#6952C4;strokeColor=#6952C4;fillColor=#F6F5FC;hachureGap=4;" vertex="1" parent="1">
          <mxGeometry x="-408" y="-411" width="102" height="34" as="geometry" />
        </mxCell>
        <mxCell id="2lD2j4Fp4vpnpTw80fRY-43" value="集群资源" style="rounded=0;whiteSpace=wrap;html=1;shadow=0;fontSize=14;fontColor=#6952C4;strokeColor=#6952C4;fillColor=#F6F5FC;hachureGap=4;" vertex="1" parent="1">
          <mxGeometry x="-409" y="-354" width="101" height="34" as="geometry" />
        </mxCell>
        <mxCell id="2lD2j4Fp4vpnpTw80fRY-44" value="配额管理" style="rounded=0;whiteSpace=wrap;html=1;shadow=0;fontSize=14;fontColor=#6952C4;strokeColor=#6952C4;fillColor=#F6F5FC;hachureGap=4;" vertex="1" parent="1">
          <mxGeometry x="-407" y="-300" width="101" height="34" as="geometry" />
        </mxCell>
        <mxCell id="2lD2j4Fp4vpnpTw80fRY-45" value="" style="rounded=0;whiteSpace=wrap;html=1;shadow=0;dashed=1;fillColor=#F6F5FC;strokeColor=none;hachureGap=4;" vertex="1" parent="1">
          <mxGeometry x="-1080" y="33" width="895" height="106" as="geometry" />
        </mxCell>
        <mxCell id="2lD2j4Fp4vpnpTw80fRY-63" value="" style="group;hachureGap=4;" vertex="1" connectable="0" parent="1">
          <mxGeometry x="-984" y="43.999999999999886" width="85" height="84" as="geometry" />
        </mxCell>
        <mxCell id="2lD2j4Fp4vpnpTw80fRY-64" value="" style="shape=image;verticalLabelPosition=bottom;labelBackgroundColor=#ffffff;verticalAlign=top;aspect=fixed;imageAspect=0;image=data:image/svg+xml,PHN2ZyB4bWxucz0iaHR0cDovL3d3dy53My5vcmcvMjAwMC9zdmciIHdpZHRoPSI2NCIgaGVpZ2h0PSI2NCIgdmlld0JveD0iMCAwIDY0IDY0IiBmaWxsPSJub25lIj4mI3hhOzxwYXRoIGQ9Ik0xLjU4NzcxIDMwLjI1TDE1LjI3ODMgNi41MzcxOUMxNS45MDM1IDUuNDU0MjggMTcuMDU5IDQuNzg3MTkgMTguMzA5NCA0Ljc4NzE5SDQ1LjY5MDZDNDYuOTQxIDQuNzg3MTkgNDguMDk2NSA1LjQ1NDI4IDQ4LjcyMTcgNi41MzcxOUw2Mi40MTIzIDMwLjI1QzYzLjAzNzUgMzEuMzMyOSA2My4wMzc1IDMyLjY2NzEgNjIuNDEyMyAzMy43NUw0OC43MjE3IDU3LjQ2MjhDNDguMDk2NSA1OC41NDU3IDQ2Ljk0MSA1OS4yMTI4IDQ1LjY5MDYgNTkuMjEyOEgxOC4zMDk0QzE3LjA1OSA1OS4yMTI4IDE1LjkwMzUgNTguNTQ1NyAxNS4yNzgzIDU3LjQ2MjhMMS41ODc3MSAzMy43NUMwLjk2MjQ5OCAzMi42NjcxIDAuOTYyNDk4IDMxLjMzMjkgMS41ODc3MSAzMC4yNVoiIGZpbGw9IndoaXRlIiBzdHJva2U9IiNDNUNFREUiLz4mI3hhOzxwYXRoIGZpbGwtcnVsZT0iZXZlbm9kZCIgY2xpcC1ydWxlPSJldmVub2RkIiBkPSJNMzIuNyAxOEMzNy43MjU4IDE4IDQxLjggMjIuMDc0MiA0MS44IDI3LjFDNDEuOCAyNy4zMzU1IDQxLjc5MTEgMjcuNTY5IDQxLjc3MzUgMjcuOEgzOS42NjUyQzM5LjY4ODIgMjcuNTY5NSAzOS43IDI3LjMzNTkgMzkuNyAyNy4xQzM5LjcgMjMuMjM0IDM2LjU2NiAyMC4xIDMyLjcgMjAuMUMyOC44MzQgMjAuMSAyNS43IDIzLjIzNCAyNS43IDI3LjFDMjUuNyAyNy42MjA3IDI1Ljc1NjUgMjguMTMyMSAyNS44NjcgMjguNjI3N0wyNS45NiAyOC45OTYzTDI2LjUxNzYgMzAuOTczNEwyNC41NTMzIDMxLjU3NDRDMjEuOTI4NiAzMi4zNzc1IDIwLjEgMzQuODExMyAyMC4xIDM3LjZDMjAuMSA0MS4wNzk0IDIyLjkyMDYgNDMuOSAyNi40IDQzLjlMMjYuNCA0NkMyMS43NjA4IDQ2IDE4IDQyLjIzOTIgMTggMzcuNkMxOCAzMy44MTcyIDIwLjUwMDUgMzAuNjE4MyAyMy45Mzg5IDI5LjU2NjNDMjMuNzE4IDI4Ljc4MzEgMjMuNiAyNy45NTUzIDIzLjYgMjcuMUMyMy42IDIyLjA3NDIgMjcuNjc0MiAxOCAzMi43IDE4Wk00NC4wMDA0IDM4LjMxMTRIMzAuODA0QzI5LjY5OTYgMzguMzExNCAyOC44MDQ0IDM5LjI1MDYgMjguODA0NCA0MC40MDkxVjQzLjkwMjNDMjguODA0NCA0NS4wNjA4IDI5LjY5OTYgNDYgMzAuODA0IDQ2SDQ0LjAwMDRDNDUuMTA0OCA0NiA0NiA0NS4wNjA4IDQ2IDQzLjkwMjNWNDAuNDA5MUM0NiAzOS4yNTA2IDQ1LjEwNDggMzguMzExNCA0NC4wMDA0IDM4LjMxMTRaTTQ0LjAwMDQgNDMuOTAyM0gzMC44MDRWNDAuNDA5MUg0NC4wMDA0VjQzLjkwMjNaTTM1LjE1IDQyLjA4QzM1LjE1IDQxLjY5MzQgMzQuODM2NiA0MS4zOCAzNC40NSA0MS4zOEMzNC4wNjM0IDQxLjM4IDMzLjc1IDQxLjY5MzQgMzMuNzUgNDIuMDhDMzMuNzUgNDIuNDY2NiAzNC4wNjM0IDQyLjc4IDM0LjQ1IDQyLjc4QzM0LjgzNjYgNDIuNzggMzUuMTUgNDIuNDY2NiAzNS4xNSA0Mi4wOFpNMzcuMjUgNDIuMDhDMzcuMjUgNDEuNjkzNCAzNy41NjM0IDQxLjM4IDM3Ljk1IDQxLjM4SDQxLjhDNDIuMTg2NiA0MS4zOCA0Mi41IDQxLjY5MzQgNDIuNSA0Mi4wOEM0Mi41IDQyLjQ2NjYgNDIuMTg2NiA0Mi43OCA0MS44IDQyLjc4SDM3Ljk1QzM3LjU2MzQgNDIuNzggMzcuMjUgNDIuNDY2NiAzNy4yNSA0Mi4wOFpNMzAuODA0IDI5LjkxMTRINDQuMDAwNEM0NS4xMDQ4IDI5LjkxMTQgNDYgMzAuODUwNiA0NiAzMi4wMDkxVjM1LjUwMjNDNDYgMzYuNjYwOCA0NS4xMDQ4IDM3LjYgNDQuMDAwNCAzNy42SDMwLjgwNEMyOS42OTk2IDM3LjYgMjguODA0NCAzNi42NjA4IDI4LjgwNDQgMzUuNTAyM1YzMi4wMDkxQzI4LjgwNDQgMzAuODUwNiAyOS42OTk2IDI5LjkxMTQgMzAuODA0IDI5LjkxMTRaTTMwLjgwNCAzNS41MDIzSDQ0LjAwMDRWMzIuMDA5MUgzMC44MDRWMzUuNTAyM1pNMzQuNDUgMzIuOThDMzQuODM2NiAzMi45OCAzNS4xNSAzMy4yOTM0IDM1LjE1IDMzLjY4QzM1LjE1IDM0LjA2NjYgMzQuODM2NiAzNC4zOCAzNC40NSAzNC4zOEMzNC4wNjM0IDM0LjM4IDMzLjc1IDM0LjA2NjYgMzMuNzUgMzMuNjhDMzMuNzUgMzMuMjkzNCAzNC4wNjM0IDMyLjk4IDM0LjQ1IDMyLjk4Wk0zNy45NSAzMi45OEMzNy41NjM0IDMyLjk4IDM3LjI1IDMzLjI5MzQgMzcuMjUgMzMuNjhDMzcuMjUgMzQuMDY2NiAzNy41NjM0IDM0LjM4IDM3Ljk1IDM0LjM4SDQxLjhDNDIuMTg2NiAzNC4zOCA0Mi41IDM0LjA2NjYgNDIuNSAzMy42OEM0Mi41IDMzLjI5MzQgNDIuMTg2NiAzMi45OCA0MS44IDMyLjk4SDM3Ljk1WiIgZmlsbD0iIzY5NTJDNCIvPiYjeGE7PC9zdmc+;hachureGap=4;" vertex="1" parent="2lD2j4Fp4vpnpTw80fRY-63">
          <mxGeometry x="8" width="64" height="64" as="geometry" />
        </mxCell>
        <mxCell id="2lD2j4Fp4vpnpTw80fRY-65" value="统一计算服务" style="text;html=1;resizable=0;autosize=1;align=center;verticalAlign=middle;points=[];fillColor=none;strokeColor=none;rounded=0;hachureGap=4;" vertex="1" parent="2lD2j4Fp4vpnpTw80fRY-63">
          <mxGeometry x="-5" y="64" width="90" height="20" as="geometry" />
        </mxCell>
        <mxCell id="2lD2j4Fp4vpnpTw80fRY-66" value="" style="group;hachureGap=4;" vertex="1" connectable="0" parent="1">
          <mxGeometry x="-664" y="49" width="77" height="84" as="geometry" />
        </mxCell>
        <mxCell id="2lD2j4Fp4vpnpTw80fRY-67" value="" style="shape=image;verticalLabelPosition=bottom;labelBackgroundColor=#ffffff;verticalAlign=top;aspect=fixed;imageAspect=0;image=data:image/svg+xml,PHN2ZyB4bWxucz0iaHR0cDovL3d3dy53My5vcmcvMjAwMC9zdmciIHdpZHRoPSI2NCIgaGVpZ2h0PSI2NCIgdmlld0JveD0iMCAwIDY0IDY0IiBmaWxsPSJub25lIj4mI3hhOzxwYXRoIGQ9Ik0xLjU4NzcxIDMwLjI1TDE1LjI3ODMgNi41MzcxOUMxNS45MDM1IDUuNDU0MjggMTcuMDU5IDQuNzg3MTkgMTguMzA5NCA0Ljc4NzE5SDQ1LjY5MDZDNDYuOTQxIDQuNzg3MTkgNDguMDk2NSA1LjQ1NDI4IDQ4LjcyMTcgNi41MzcxOUw2Mi40MTIzIDMwLjI1QzYzLjAzNzUgMzEuMzMyOSA2My4wMzc1IDMyLjY2NzEgNjIuNDEyMyAzMy43NUw0OC43MjE3IDU3LjQ2MjhDNDguMDk2NSA1OC41NDU3IDQ2Ljk0MSA1OS4yMTI4IDQ1LjY5MDYgNTkuMjEyOEgxOC4zMDk0QzE3LjA1OSA1OS4yMTI4IDE1LjkwMzUgNTguNTQ1NyAxNS4yNzgzIDU3LjQ2MjhMMS41ODc3MSAzMy43NUMwLjk2MjQ5OCAzMi42NjcxIDAuOTYyNDk4IDMxLjMzMjkgMS41ODc3MSAzMC4yNVoiIGZpbGw9IndoaXRlIiBzdHJva2U9IiNDNUNFREUiLz4mI3hhOzxwYXRoIGZpbGwtcnVsZT0iZXZlbm9kZCIgY2xpcC1ydWxlPSJldmVub2RkIiBkPSJNNDQuNiAyMy41NzE5QzQ0LjYgMjcuMDk4OCAzOC40NjY5IDI5LjExNDkgMzIuMzg3OSAyOS4xOTc0TDMyIDI5LjJDMjUuNzk2OSAyOS4yIDE5LjQgMjcuMTczOSAxOS40IDIzLjU3MTlDMTkuNCAxOS45IDI1LjU1NiAxOC4wNDI5IDMxLjc4MjggMTguMDAwN0gzMi4yMTczQzM4LjQ0NCAxOC4wNDI5IDQ0LjYgMTkuOSA0NC42IDIzLjU3MTlaTTMyIDMyLjdDMjYuNTExMyAzMi43IDIwLjg3MDkgMzEuMzEyIDE5LjY0NTcgMjguODA3NEwxOS41NTg1IDI5LjAxMDRDMTkuNDU0NiAyOS4yODQ3IDE5LjQgMjkuNTczIDE5LjQgMjkuODc1NEMxOS40IDMxLjg0NTIgMjEuODk4OCAzMy4yNzY0IDI1LjI4NzMgMzQuMDcyOEwyNS45NzY0IDM0LjIyMzZDMjYuNzkzMSAzNC4zODk2IDI3LjY1MjQgMzQuNTIwNyAyOC41MzM4IDM0LjYxNTZMMjkuMjk0MyAzNC42ODgxQzI5LjU0OTIgMzQuNzA5MyAyOS44MDU1IDM0LjcyNzUgMzAuMDYyNyAzNC43NDI3TDMwLjgzNjMgMzQuNzc5M0MzMS4yMjM5IDM0Ljc5MzEgMzEuNjEyMyAzNC44IDMyIDM0LjhMMzIuMzg3OSAzNC43OTc3QzMyLjY0NjYgMzQuNzk0NiAzMi45MDU0IDM0Ljc4ODUgMzMuMTYzOCAzNC43NzkzTDMzLjkzNzMgMzQuNzQyN0MzNC4xOTQ1IDM0LjcyNzUgMzQuNDUwOCAzNC43MDkzIDM0LjcwNTggMzQuNjg4MUwzNS40NjYzIDM0LjYxNTZDMzYuMzQ3NyAzNC41MjA3IDM3LjIwNjkgMzQuMzg5NiAzOC4wMjM2IDM0LjIyMzZMMzguNzEyNyAzNC4wNzI4QzQyLjEwMTIgMzMuMjc2NCA0NC42IDMxLjg0NTIgNDQuNiAyOS44NzU0QzQ0LjYgMjkuNDk3NCA0NC41MTQ4IDI5LjE0MTQgNDQuMzU1NiAyOC44MDg4TDQ0LjI0NjUgMjkuMDA5M0M0Mi44MjQ0IDMxLjM4NiAzNy4zNDA0IDMyLjcgMzIgMzIuN1pNMTkuNjQ1NyAzNC40MDc0QzIwLjg3MDkgMzYuOTEyIDI2LjUxMTMgMzguMyAzMiAzOC4zQzM3LjM0MDQgMzguMyA0Mi44MjQ0IDM2Ljk4NiA0NC4yNDY1IDM0LjYwOTNMNDQuMzU1NiAzNC40MDg4QzQ0LjUxNDggMzQuNzQxNCA0NC42IDM1LjA5NzQgNDQuNiAzNS40NzU0QzQ0LjYgMzcuNDQ1MiA0Mi4xMDEyIDM4Ljg3NjQgMzguNzEyNyAzOS42NzI4TDM4LjAyMzYgMzkuODIzNkMzNy4yMDY5IDM5Ljk4OTYgMzYuMzQ3NyA0MC4xMjA3IDM1LjQ2NjMgNDAuMjE1NkwzNC43MDU4IDQwLjI4ODFDMzQuNDUwOCA0MC4zMDkzIDM0LjE5NDUgNDAuMzI3NSAzMy45MzczIDQwLjM0MjdMMzMuMTYzOCA0MC4zNzkzQzMyLjkwNTQgNDAuMzg4NSAzMi42NDY2IDQwLjM5NDYgMzIuMzg3OSA0MC4zOTc3TDMyIDQwLjRDMzEuNjEyMyA0MC40IDMxLjIyMzkgNDAuMzkzMSAzMC44MzYzIDQwLjM3OTNMMzAuMDYyNyA0MC4zNDI3QzI5LjgwNTUgNDAuMzI3NSAyOS41NDkyIDQwLjMwOTMgMjkuMjk0MyA0MC4yODgxTDI4LjUzMzggNDAuMjE1NkMyNy42NTI0IDQwLjEyMDcgMjYuNzkzMSAzOS45ODk2IDI1Ljk3NjQgMzkuODIzNkwyNS4yODczIDM5LjY3MjhDMjEuODk4OCAzOC44NzY0IDE5LjQgMzcuNDQ1MiAxOS40IDM1LjQ3NTRDMTkuNCAzNS4xNzMgMTkuNDU0NiAzNC44ODQ3IDE5LjU1ODUgMzQuNjEwNEwxOS42NDU3IDM0LjQwNzRaTTE5LjY0NTcgNDAuMDA3NEMyMC44NzA5IDQyLjUxMiAyNi41MTEzIDQzLjkgMzIgNDMuOUMzNy4zNDA0IDQzLjkgNDIuODI0NCA0Mi41ODYgNDQuMjQ2NSA0MC4yMDkzTDQ0LjM1NTYgNDAuMDA4OEM0NC41MTQ4IDQwLjM0MTQgNDQuNiA0MC42OTc0IDQ0LjYgNDEuMDc1NEM0NC42IDQzLjA0NTIgNDIuMTAxMiA0NC40NzY0IDM4LjcxMjcgNDUuMjcyOEwzOC4wMjM2IDQ1LjQyMzZDMzcuMjA2OSA0NS41ODk2IDM2LjM0NzcgNDUuNzIwNyAzNS40NjYzIDQ1LjgxNTZMMzQuNzA1OCA0NS44ODgxQzM0LjQ1MDggNDUuOTA5MyAzNC4xOTQ1IDQ1LjkyNzUgMzMuOTM3MyA0NS45NDI3TDMzLjE2MzggNDUuOTc5M0MzMi45MDU0IDQ1Ljk4ODUgMzIuNjQ2NiA0NS45OTQ2IDMyLjM4NzkgNDUuOTk3N0wzMiA0NkMzMS42MTIzIDQ2IDMxLjIyMzkgNDUuOTkzMSAzMC44MzYzIDQ1Ljk3OTNMMzAuMDYyNyA0NS45NDI3QzI5LjgwNTUgNDUuOTI3NSAyOS41NDkyIDQ1LjkwOTMgMjkuMjk0MyA0NS44ODgxTDI4LjUzMzggNDUuODE1NkMyNy42NTI0IDQ1LjcyMDcgMjYuNzkzMSA0NS41ODk2IDI1Ljk3NjQgNDUuNDIzNkwyNS4yODczIDQ1LjI3MjhDMjEuODk4OCA0NC40NzY0IDE5LjQgNDMuMDQ1MiAxOS40IDQxLjA3NTRDMTkuNCA0MC43NzMgMTkuNDU0NiA0MC40ODQ3IDE5LjU1ODUgNDAuMjEwNEwxOS42NDU3IDQwLjAwNzRaTTI4LjgyMDcgMjYuOTA5N0MyNC41NjMyIDI2LjM5MTIgMjEuNSAyNC45MDMzIDIxLjUgMjMuNTcxOUMyMS41IDE4Ljk0MjcgNDIuNSAxOC45NDI3IDQyLjUgMjMuNTcxOUM0Mi41IDI0LjkwMzMgMzkuNDM2OCAyNi4zOTEyIDM1LjE3OTMgMjYuOTA5N0wzNC40MTYgMjYuOTkwOUMzMy42NDEgMjcuMDYxNiAzMi44MzIzIDI3LjEgMzIgMjcuMUMzMS4xNjc4IDI3LjEgMzAuMzU5IDI3LjA2MTYgMjkuNTg0MSAyNi45OTA5TDI4LjgyMDcgMjYuOTA5N1oiIGZpbGw9IiM2OTUyQzQiLz4mI3hhOzwvc3ZnPg==;hachureGap=4;" vertex="1" parent="2lD2j4Fp4vpnpTw80fRY-66">
          <mxGeometry width="64" height="64" as="geometry" />
        </mxCell>
        <mxCell id="2lD2j4Fp4vpnpTw80fRY-68" value="统一存储服务" style="text;html=1;resizable=0;autosize=1;align=center;verticalAlign=middle;points=[];fillColor=none;strokeColor=none;rounded=0;hachureGap=4;" vertex="1" parent="2lD2j4Fp4vpnpTw80fRY-66">
          <mxGeometry x="-13" y="64" width="90" height="20" as="geometry" />
        </mxCell>
        <mxCell id="2lD2j4Fp4vpnpTw80fRY-69" value="" style="group;hachureGap=4;" vertex="1" connectable="0" parent="1">
          <mxGeometry x="-333.5" y="39" width="85" height="104" as="geometry" />
        </mxCell>
        <mxCell id="2lD2j4Fp4vpnpTw80fRY-70" value="" style="shape=image;verticalLabelPosition=bottom;labelBackgroundColor=#ffffff;verticalAlign=top;aspect=fixed;imageAspect=0;image=data:image/svg+xml,PHN2ZyB4bWxucz0iaHR0cDovL3d3dy53My5vcmcvMjAwMC9zdmciIHdpZHRoPSI2NCIgaGVpZ2h0PSI2NCIgdmlld0JveD0iMCAwIDY0IDY0IiBmaWxsPSJub25lIj4mI3hhOzxwYXRoIGQ9Ik0xLjU4NzcxIDMzLjc1QzAuOTYyNDk4IDMyLjY2NzEgMC45NjI0OTggMzEuMzMyOSAxLjU4NzcxIDMwLjI1TDE1LjI3ODMgNi41MzcxOUMxNS45MDM1IDUuNDU0MjggMTcuMDU5IDQuNzg3MTkgMTguMzA5NCA0Ljc4NzE5SDQ1LjY5MDZDNDYuOTQxIDQuNzg3MTkgNDguMDk2NSA1LjQ1NDI4IDQ4LjcyMTcgNi41MzcxOUw2Mi40MTIzIDMwLjI1QzYzLjAzNzUgMzEuMzMyOSA2My4wMzc1IDMyLjY2NzEgNjIuNDEyMyAzMy43NUw0OC43MjE3IDU3LjQ2MjhDNDguMDk2NSA1OC41NDU3IDQ2Ljk0MSA1OS4yMTI4IDQ1LjY5MDYgNTkuMjEyOEgxOC4zMDk0QzE3LjA1OSA1OS4yMTI4IDE1LjkwMzUgNTguNTQ1NyAxNS4yNzgzIDU3LjQ2MjhMMS41ODc3MSAzMy43NVoiIGZpbGw9IndoaXRlIiBzdHJva2U9IiNDNUNFREUiLz4mI3hhOzxwYXRoIGZpbGwtcnVsZT0iZXZlbm9kZCIgY2xpcC1ydWxlPSJldmVub2RkIiBkPSJNMzQuNTgzNSAyMS4wOTQyQzM0LjYxNTMgMjAuOTMzIDM0LjYzMiAyMC43NjY0IDM0LjYzMiAyMC41OTZDMzQuNjMyIDE5LjE2MjMgMzMuNDUzNiAxOCAzMiAxOEMzMC41NDYzIDE4IDI5LjM2OCAxOS4xNjIzIDI5LjM2OCAyMC41OTZDMjkuMzY4IDIwLjc2NjQgMjkuMzg0NiAyMC45MzMgMjkuNDE2NCAyMS4wOTQyTDIzLjAyNTggMjQuNjE5N0MyMi41OTA0IDI0LjMwNSAyMi4wNTMyIDI0LjExOTIgMjEuNDcyIDI0LjExOTJDMjAuMDE4NCAyNC4xMTkyIDE4Ljg0IDI1LjI4MTUgMTguODQgMjYuNzE1MkMxOC44NCAyNy45NTggMTkuNzI1NCAyOC45OTY4IDIwLjkwNzkgMjkuMjUxNVYzNS4zMDQ4QzE5LjcyNTQgMzUuNTU5NCAxOC44NCAzNi41OTgzIDE4Ljg0IDM3Ljg0MTFDMTguODQgMzkuMjc0OCAyMC4wMTg0IDQwLjQzNzEgMjEuNDcyIDQwLjQzNzFDMjIuMzAwNyA0MC40MzcxIDIzLjA0IDQwLjA1OTMgMjMuNTIyNCAzOS40Njg4TDI5LjI0NDIgNDIuNjI1NEMyOS4yMDIyIDQyLjgxNjUgMjkuMTggNDMuMDE1IDI5LjE4IDQzLjIxODVDMjkuMTggNDQuNzU0NyAzMC40NDI1IDQ2IDMyIDQ2QzMzLjU1NzQgNDYgMzQuODIgNDQuNzU0NyAzNC44MiA0My4yMTg1QzM0LjgyIDQzLjAxNSAzNC43OTc4IDQyLjgxNjUgMzQuNzU1NyA0Mi42MjU0TDQwLjQ3NzUgMzkuNDY4OEM0MC45NiA0MC4wNTkzIDQxLjY5OTIgNDAuNDM3MSA0Mi41MjggNDAuNDM3MUM0My45ODE2IDQwLjQzNzEgNDUuMTYgMzkuMjc0OCA0NS4xNiAzNy44NDFDNDUuMTYgMzYuNTk4MiA0NC4yNzQ1IDM1LjU1OTQgNDMuMDkxOSAzNS4zMDQ4VjI5LjI1MTVDNDQuMjc0NSAyOC45OTY4IDQ1LjE2IDI3Ljk1OCA0NS4xNiAyNi43MTUyQzQ1LjE2IDI1LjI4MTUgNDMuOTgxNiAyNC4xMTkyIDQyLjUyOCAyNC4xMTkyQzQxLjk0NjggMjQuMTE5MiA0MS40MDk1IDI0LjMwNSA0MC45NzQxIDI0LjYxOTdMMzQuNTgzNSAyMS4wOTQyWk0yNC4xMDQgMjYuNzE1MkMyNC4xMDQgMjcuMDcwNCAyNC4wMzE3IDI3LjQwODkgMjMuOTAwOCAyNy43MTcyTDI1Ljc3MjcgMjguNzk5N0MyNS40ODY0IDI5LjM1NTcgMjUuMjcyNCAyOS45NTUgMjUuMTQzMSAzMC41ODUxTDIyLjc4OCAyOS4yMjMyVjM1LjU5MjRDMjMuNTc0NyAzNi4wNDEyIDI0LjEwNCAzNi44ODAyIDI0LjEwNCAzNy44NDExTDMwLjA2MTIgNDEuMTk4N0MzMC4zNDQ4IDQwLjkzMzggMzAuNjg0MSA0MC43MjY0IDMxLjA2IDQwLjU5NTRWMzguOTM3NEMzMS4zNjc1IDM4Ljk3ODcgMzEuNjgxMiAzOSAzMiAzOUMzMi4zMTg4IDM5IDMyLjYzMjUgMzguOTc4NyAzMi45NCAzOC45Mzc0VjQwLjU5NTRDMzMuMzE1OSA0MC43MjY0IDMzLjY1NTIgNDAuOTMzOCAzMy45Mzg3IDQxLjE5ODdMMzkuODk2IDM3Ljg0MTFWMzcuODQxQzM5Ljg5NiAzNi44ODAxIDQwLjQyNTMgMzYuMDQxMiA0MS4yMTIgMzUuNTkyM1YyOS43NjE1TDM4LjkzMTQgMzEuMDE2QzM4Ljg0MDggMzAuMzcxOCAzOC42NjI0IDI5Ljc1NTcgMzguNDA4OSAyOS4xODAzTDQwLjMyMDEgMjguMTI5QzQwLjA1MTggMjcuNzIyMiAzOS44OTYgMjcuMjM2NyAzOS44OTYgMjYuNzE1MkMzOS44OTYgMjYuNDc2NyAzOS45Mjg2IDI2LjI0NTcgMzkuOTg5NiAyNi4wMjYzTDMzLjc2NzYgMjIuNTE5NUMzMy41Mjc5IDIyLjczNCAzMy4yNDc4IDIyLjkwNTUgMzIuOTQgMjMuMDIxNlYyNS4wNjI2QzMyLjYzMjUgMjUuMDIxMyAzMi4zMTg4IDI1IDMyIDI1QzMxLjY4MTIgMjUgMzEuMzY3NSAyNS4wMjEzIDMxLjA2IDI1LjA2MjZWMjMuMDIxNkMzMC43NTIyIDIyLjkwNTUgMzAuNDcyMSAyMi43MzQgMzAuMjMyMyAyMi41MTk1TDI0LjAxMDMgMjYuMDI2M0MyNC4wNzE0IDI2LjI0NTcgMjQuMTA0IDI2LjQ3NjcgMjQuMTA0IDI2LjcxNTJaTTM2LjkwOCAzMC4wNjc0QzM3LjEyODQgMzAuMDUyNCAzNy4zMjkzIDMwLjE5NDQgMzcuMzkwOCAzMC40MDg1QzM3LjUxOTUgMzAuOTI4MiAzNy42IDMxLjQ2NDIgMzcuNiAzMi4wMDAyQzM3LjYgMzIuNTM2MiAzNy41MzU2IDMzLjA1NiAzNy4zOTA4IDMzLjU3NThDMzcuMzI2NCAzMy43ODY5IDM3LjEzMzMgMzMuOTMzMSAzNi45MDggMzMuOTE2OEMzNi41NTQgMzMuOTAwNiAzNi4yMTYxIDM0LjA3OTMgMzYuMDM5MSAzNC40MDQxQzM1Ljg2NDEgMzQuNzE5OSAzNS44NzY1IDM1LjEwNzQgMzYuMDcxMyAzNS40MTEyQzM2LjIgMzUuNjA2MSAzNi4xODM5IDM1Ljg0OTcgMzYuMDIzIDM2LjAxMjFDMzUuMjk4OSAzNi43NzU1IDM0LjM4MTYgMzcuMzI3OCAzMy4zNjc4IDM3LjU4NzdDMzMuMTU4NiAzNy42MzY0IDMyLjkzMzMgMzcuNTIyNyAzMi44MzY4IDM3LjMyNzhDMzIuNjc1OSAzNy4wMDI5IDMyLjM1NCAzNi43OTE4IDMyIDM2Ljc5MThDMzEuNjQ2IDM2Ljc5MTggMzEuMzI0MSAzNy4wMDI5IDMxLjE2MzIgMzcuMzI3OEMzMS4wNjY3IDM3LjUzODkgMzAuODQxNCAzNy42MzY0IDMwLjYzMjIgMzcuNTg3N0MyOS42MTg0IDM3LjMyNzggMjguNzAxMSAzNi43NzU1IDI3Ljk3NyAzNi4wMTIxQzI3LjgyNTMgMzUuODQ3MSAyNy44MDU0IDM1LjU5ODcgMjcuOTI4NyAzNS40MTEyQzI4LjEyMTggMzUuMTE4OCAyOC4xMzc5IDM0LjcyOSAyNy45NjA5IDM0LjQwNDFDMjcuNzgzOSAzNC4wNzkzIDI3LjQ0NiAzMy45MDA2IDI3LjA5MiAzMy45MTY4QzI2Ljg2NjcgMzMuOTMzMSAyNi42NzM2IDMzLjc4NjkgMjYuNjA5MiAzMy41NzU4QzI2LjQ2NDQgMzMuMDcyMiAyNi40IDMyLjUzNjIgMjYuNCAzMi4wMDAyQzI2LjQgMzEuNDY0MiAyNi40NjQ0IDMwLjkyODIgMjYuNjA5MiAzMC40MDg1QzI2LjY3MDcgMzAuMTk0NCAyNi44NzE2IDMwLjA1MjQgMjcuMDkyIDMwLjA2NzRDMjcuNDQ2IDMwLjA5OTggMjcuNzgzOSAyOS45MjEyIDI3Ljk2MDkgMjkuNTk2M0MyOC4xMzc5IDI5LjI3MTUgMjguMTIxOCAyOC44ODE3IDI3LjkyODcgMjguNTg5M0MyNy44IDI4LjM5NDQgMjcuODE2MSAyOC4xNTA3IDI3Ljk3NyAyNy45ODgzQzI4LjcwMTEgMjcuMjI0OSAyOS42MTg0IDI2LjY3MjcgMzAuNjMyMiAyNi40MTI4QzMwLjg0NyAyNi4zNjg2IDMxLjA2NDUgMjYuNDc1MSAzMS4xNjMyIDI2LjY3MjdDMzEuMzI0MSAyNi45OTc1IDMxLjY0NiAyNy4yMDg3IDMyIDI3LjIwODdDMzIuMzU0IDI3LjIwODcgMzIuNjc1OSAyNi45OTc1IDMyLjgzNjggMjYuNjcyN0MzMi45MzAyIDI2LjQ2OTcgMzMuMTUyMSAyNi4zNjExIDMzLjM2NzggMjYuNDEyOEMzNC4zODE2IDI2LjY3MjcgMzUuMjk4OSAyNy4yMjQ5IDM2LjAyMyAyNy45ODgzQzM2LjE3NDcgMjguMTUzMyAzNi4xOTQ2IDI4LjQwMTggMzYuMDcxMyAyOC41ODkzQzM1Ljg3ODIgMjguODgxNyAzNS44NjIxIDI5LjI4NzcgMzYuMDM5MSAyOS41OTYzQzM2LjIxNjEgMjkuOTA0OSAzNi41NTQgMzAuMDk5OCAzNi45MDggMzAuMDY3NFpNMzQuNDM1MSAzMy40ODMxQzM0LjYzOTggMzMuMDg3NiAzNS4wMTA3IDMyLjgyMzkgMzUuNDMyOCAzMi43NThDMzUuNTIyNCAzMi4yNTcxIDM1LjUyMjQgMzEuNzQyOSAzNS40MzI4IDMxLjI1NTJDMzUuMDEwNyAzMS4xODkzIDM0LjY1MjYgMzAuOTI1NiAzNC40MzUxIDMwLjUzMDFDMzQuMjE3NyAzMC4xMzQ3IDM0LjE5MjEgMjkuNjczMyAzNC4zNDU2IDI5LjI1MTRDMzMuOTg3NCAyOC45MDg3IDMzLjU2NTMgMjguNjU4MiAzMy4xMDQ4IDI4LjVDMzIuODM2MiAyOC44NDI3IDMyLjQzOTcgMjkuMDUzNyAzMi4wMDQ4IDI5LjA1MzdDMzEuNTY5OSAyOS4wNTM3IDMxLjE3MzQgMjguODU1OSAzMC45MDQ4IDI4LjVDMzAuNDQ0MyAyOC42NTgyIDMwLjAyMjIgMjguOTA4NyAyOS42NjQgMjkuMjUxNEMyOS44MzAzIDI5LjY3MzMgMjkuNzkxOSAzMC4xMzQ3IDI5LjU3NDUgMzAuNTMwMUMyOS4zNjk4IDMwLjkxMjQgMjguOTk4OSAzMS4xNzYxIDI4LjU3NjcgMzEuMjU1MkMyOC40NzQ0IDMxLjc1NjEgMjguNDc0NCAzMi4yNTcxIDI4LjU3NjcgMzIuNzU4QzI4Ljk5ODkgMzIuODIzOSAyOS4zNTcgMzMuMDg3NiAyOS41NzQ1IDMzLjQ4MzFDMjkuNzkxOSAzMy44NjUzIDI5LjgxNzUgMzQuMzI2NyAyOS42NjQgMzQuNzQ4NkMzMC4wMjIyIDM1LjA5MTMgMzAuNDQ0MyAzNS4zNDE4IDMwLjkwNDggMzUuNUMzMS4xNjg5IDM1LjE1MDQgMzEuNTc0OCAzNC45NDU5IDMyLjAwNDggMzQuOTQ1OUMzMi40MzQ4IDM0Ljk0NTkgMzIuODQwNyAzNS4xNTA0IDMzLjEwNDggMzUuNUMzMy41NjUzIDM1LjM0MTggMzMuOTg3NCAzNS4wOTEzIDM0LjM0NTYgMzQuNzQ4NkMzNC4xOTIxIDM0LjMzOTkgMzQuMjE3NyAzMy44NjUzIDM0LjQzNTEgMzMuNDgzMVpNMzIgMzMuNEMzMS4yMjY4IDMzLjQgMzAuNiAzMi43NzMyIDMwLjYgMzJDMzAuNiAzMS4yMjY4IDMxLjIyNjggMzAuNiAzMiAzMC42QzMyLjc3MzIgMzAuNiAzMy40IDMxLjIyNjggMzMuNCAzMkMzMy40IDMyLjc3MzIgMzIuNzczMiAzMy40IDMyIDMzLjRaIiBmaWxsPSIjNjk1MkM0Ii8+JiN4YTs8L3N2Zz4=;hachureGap=4;" vertex="1" parent="2lD2j4Fp4vpnpTw80fRY-69">
          <mxGeometry x="10.5" y="10" width="64" height="64" as="geometry" />
        </mxCell>
        <mxCell id="2lD2j4Fp4vpnpTw80fRY-71" value="统一网络服务" style="text;html=1;resizable=0;autosize=1;align=center;verticalAlign=middle;points=[];fillColor=none;strokeColor=none;rounded=0;hachureGap=4;" vertex="1" parent="2lD2j4Fp4vpnpTw80fRY-69">
          <mxGeometry x="-5" y="74" width="90" height="20" as="geometry" />
        </mxCell>
        <mxCell id="2lD2j4Fp4vpnpTw80fRY-73" value="" style="rounded=0;whiteSpace=wrap;html=1;imageWidth=24;arcSize=1;strokeColor=none;fillColor=#F5F7FA;hachureGap=4;" vertex="1" parent="1">
          <mxGeometry x="-170" y="-560" width="300" height="700" as="geometry" />
        </mxCell>
        <mxCell id="2lD2j4Fp4vpnpTw80fRY-74" value="&lt;font style=&quot;font-size: 14px&quot;&gt;权限认证管理&lt;/font&gt;" style="rounded=0;whiteSpace=wrap;html=1;sketch=0;fillColor=#6952C4;strokeColor=none;fontColor=#FFFFFF;fontStyle=1;shadow=0;arcSize=10;absoluteArcSize=0;fontSize=14;hachureGap=4;" vertex="1" parent="1">
          <mxGeometry x="-170" y="-600" width="300" height="40" as="geometry" />
        </mxCell>
        <mxCell id="2lD2j4Fp4vpnpTw80fRY-75" value="" style="rounded=0;whiteSpace=wrap;html=1;shadow=0;fontSize=14;fontColor=#6952C4;strokeColor=#6952C4;fillColor=#F6F5FC;hachureGap=4;" vertex="1" parent="1">
          <mxGeometry x="-999" y="-434" width="147.5" height="110" as="geometry" />
        </mxCell>
        <mxCell id="2lD2j4Fp4vpnpTw80fRY-76" value="node" style="text;html=1;resizable=0;autosize=1;align=left;verticalAlign=middle;points=[];fillColor=none;strokeColor=none;rounded=0;fontColor=#6952C4;fontStyle=1;fontSize=14;hachureGap=4;" vertex="1" parent="1">
          <mxGeometry x="-979" y="-414" width="50" height="20" as="geometry" />
        </mxCell>
        <mxCell id="2lD2j4Fp4vpnpTw80fRY-77" value="" style="shape=image;verticalLabelPosition=bottom;verticalAlign=top;imageAspect=0;aspect=fixed;image=data:image/svg+xml,PHN2ZyB4bWxucz0iaHR0cDovL3d3dy53My5vcmcvMjAwMC9zdmciIHdpZHRoPSIyOCIgaGVpZ2h0PSIyOCIgdmlld0JveD0iMCAwIDI4IDI4IiBmaWxsPSJub25lIj4mI3hhOzxnIGNsaXAtcGF0aD0idXJsKCNjbGlwMF8yOTdfMzczMSkiPiYjeGE7PHBhdGggZmlsbC1ydWxlPSJldmVub2RkIiBjbGlwLXJ1bGU9ImV2ZW5vZGQiIGQ9Ik0xOS41NTk1IDIuOTY2OUwxNC45Mzc3IDAuMjU1MzUzQzE0LjM1NzQgLTAuMDg1MTE3NyAxMy42NDI0IC0wLjA4NTExNzcgMTMuMDYyMSAwLjI1NTM1M0w4LjQ0MDI3IDIuOTY2OUM3LjkzMjQ4IDMuMjY0ODEgNy41OTUzIDMuNzgzNzkgNy41MTg5NCA0LjM2NTA2TDcuNTE1NSA0LjM5Mjc4QzcuNTA2ODYgNC40NjY4NCA3LjUwMjQ0IDQuNTQxODYgNy41MDI0NCA0LjYxNzUyVjEwLjA0MDZDNy41MDI0NCAxMC43MjE2IDcuODU5OTQgMTEuMzUwOCA4LjQ0MDI3IDExLjY5MTJMMTMuMDYyMSAxNC40MDI4QzEzLjY0MjQgMTQuNzQzMyAxNC4zNTc0IDE0Ljc0MzMgMTQuOTM3NyAxNC40MDI4TDE5LjU1OTUgMTEuNjkxMkMyMC4xMzk4IDExLjM1MDggMjAuNDk3MyAxMC43MjE2IDIwLjQ5NzMgMTAuMDQwNlY0LjYxNzUyQzIwLjQ5NzMgNC41Njk0MyAyMC40OTU1IDQuNTIxNjEgMjAuNDkyIDQuNDc0MTFDMjAuNDQ1NyAzLjg0OTE1IDIwLjA5ODggMy4yODMzMiAxOS41NTk1IDIuOTY2OVpNOS4zNzgwOSAxMC4wNDA2VjUuNTY4NzRMMTMuMDYyMSA3LjczMTQ5VjEyLjIwMTlMOS4zNzgwOSAxMC4wNDA2Wk0xNS4wNjIxIDEyLjEyOUwxOC42MjE3IDEwLjA0MDZWNS41NzExNkwxNS4wNjIxIDcuNjU5MDRWMTIuMTI5Wk0xMy45OTk5IDYuMDc4NzRMMTcuNjM5NyA0LjA0MTQzTDEzLjk5OTkgMS45MDU5OEwxMC4zNiA0LjA0MTQzTDEzLjk5OTkgNi4wNzg3NFoiIGZpbGw9IiM2OTUyQzQiLz4mI3hhOzxwYXRoIGZpbGwtcnVsZT0iZXZlbm9kZCIgY2xpcC1ydWxlPSJldmVub2RkIiBkPSJNMTIuMDU3IDE2LjMwODdMNy40MzUyNCAxMy41OTcxQzYuODU0OTIgMTMuMjU2NyA2LjEzOTkzIDEzLjI1NjcgNS41NTk2IDEzLjU5NzFMMC45Mzc4MjIgMTYuMzA4N0MwLjQzMDAzNyAxNi42MDY2IDAuMDkyODU1NyAxNy4xMjU2IDAuMDE2NDk0NiAxNy43MDY5TDAuMDEzMDU1OSAxNy43MzQ2QzAuMDA0NDEzNTggMTcuODA4NiAwIDE3Ljg4MzcgMCAxNy45NTkzVjIzLjM4MjRDMCAyNC4wNjMzIDAuMzU3NDk2IDI0LjY5MjYgMC45Mzc4MjIgMjUuMDMzTDUuNTU5NiAyNy43NDQ2QzYuMTM5OTMgMjguMDg1IDYuODU0OTIgMjguMDg1IDcuNDM1MjQgMjcuNzQ0NkwxMi4wNTcgMjUuMDMzQzEyLjYzNzMgMjQuNjkyNiAxMi45OTQ4IDI0LjA2MzMgMTIuOTk0OCAyMy4zODI0VjE3Ljk1OTNDMTIuOTk0OCAxNy45MTEyIDEyLjk5MzEgMTcuODYzNCAxMi45ODk1IDE3LjgxNTlDMTIuOTQzMiAxNy4xOTA5IDEyLjU5NjQgMTYuNjI1MSAxMi4wNTcgMTYuMzA4N1pNMS44NzU2NCAyMy4zODI0VjE4LjkxMDVMNS41NTk2IDIxLjA3MzNWMjUuNTQzN0wxLjg3NTY0IDIzLjM4MjRaTTcuNTU5NiAyNS40NzA4TDExLjExOTIgMjMuMzgyNFYxOC45MTNMNy41NTk2IDIxLjAwMDhWMjUuNDcwOFpNNi40OTc0MiAxOS40MjA1TDEwLjEzNzMgMTcuMzgzMkw2LjQ5NzQyIDE1LjI0NzhMMi44NTc1OCAxNy4zODMyTDYuNDk3NDIgMTkuNDIwNVoiIGZpbGw9IiM2OTUyQzQiLz4mI3hhOzxwYXRoIGZpbGwtcnVsZT0iZXZlbm9kZCIgY2xpcC1ydWxlPSJldmVub2RkIiBkPSJNMjIuNDM1MiAxMy41OTcxTDI3LjA1NyAxNi4zMDg3QzI3LjU5NjQgMTYuNjI1MSAyNy45NDMyIDE3LjE5MDkgMjcuOTg5NSAxNy44MTU5QzI3Ljk5MzEgMTcuODYzNCAyNy45OTQ4IDE3LjkxMTIgMjcuOTk0OCAxNy45NTkzVjIzLjM4MjRDMjcuOTk0OCAyNC4wNjMzIDI3LjYzNzMgMjQuNjkyNiAyNy4wNTcgMjUuMDMzTDIyLjQzNTIgMjcuNzQ0NkMyMS44NTQ5IDI4LjA4NSAyMS4xMzk5IDI4LjA4NSAyMC41NTk2IDI3Ljc0NDZMMTUuOTM3OCAyNS4wMzNDMTUuMzU3NSAyNC42OTI2IDE1IDI0LjA2MzMgMTUgMjMuMzgyNFYxNy45NTkzQzE1IDE3Ljg4MzcgMTUuMDA0NCAxNy44MDg2IDE1LjAxMzEgMTcuNzM0NkwxNS4wMTY1IDE3LjcwNjlDMTUuMDkyOSAxNy4xMjU2IDE1LjQzIDE2LjYwNjYgMTUuOTM3OCAxNi4zMDg3TDIwLjU1OTYgMTMuNTk3MUMyMS4xMzk5IDEzLjI1NjcgMjEuODU0OSAxMy4yNTY3IDIyLjQzNTIgMTMuNTk3MVpNMTYuODc1NiAxOC45MTA1VjIzLjM4MjRMMjAuNTU5NiAyNS41NDM3VjIxLjA3MzNMMTYuODc1NiAxOC45MTA1Wk0yNi4xMTkyIDIzLjM4MjRMMjIuNTU5NiAyNS40NzA4VjIxLjAwMDhMMjYuMTE5MiAxOC45MTNWMjMuMzgyNFpNMjUuMTM3MyAxNy4zODMyTDIxLjQ5NzQgMTkuNDIwNUwxNy44NTc2IDE3LjM4MzJMMjEuNDk3NCAxNS4yNDc4TDI1LjEzNzMgMTcuMzgzMloiIGZpbGw9IiM2OTUyQzQiLz4mI3hhOzwvZz4mI3hhOzxkZWZzPiYjeGE7PGNsaXBQYXRoIGlkPSJjbGlwMF8yOTdfMzczMSI+JiN4YTs8cmVjdCB3aWR0aD0iMjgiIGhlaWdodD0iMjgiIGZpbGw9IndoaXRlIi8+JiN4YTs8L2NsaXBQYXRoPiYjeGE7PC9kZWZzPiYjeGE7PC9zdmc+;hachureGap=4;" vertex="1" parent="1">
          <mxGeometry x="-900.5" y="-375" width="28" height="28" as="geometry" />
        </mxCell>
        <mxCell id="2lD2j4Fp4vpnpTw80fRY-78" value="" style="shape=image;verticalLabelPosition=bottom;verticalAlign=top;imageAspect=0;aspect=fixed;image=data:image/svg+xml,PHN2ZyB4bWxucz0iaHR0cDovL3d3dy53My5vcmcvMjAwMC9zdmciIHdpZHRoPSIyOCIgaGVpZ2h0PSIyOCIgdmlld0JveD0iMCAwIDI4IDI4IiBmaWxsPSJub25lIj4mI3hhOzxnIGNsaXAtcGF0aD0idXJsKCNjbGlwMF8yOTdfMzczMSkiPiYjeGE7PHBhdGggZmlsbC1ydWxlPSJldmVub2RkIiBjbGlwLXJ1bGU9ImV2ZW5vZGQiIGQ9Ik0xOS41NTk1IDIuOTY2OUwxNC45Mzc3IDAuMjU1MzUzQzE0LjM1NzQgLTAuMDg1MTE3NyAxMy42NDI0IC0wLjA4NTExNzcgMTMuMDYyMSAwLjI1NTM1M0w4LjQ0MDI3IDIuOTY2OUM3LjkzMjQ4IDMuMjY0ODEgNy41OTUzIDMuNzgzNzkgNy41MTg5NCA0LjM2NTA2TDcuNTE1NSA0LjM5Mjc4QzcuNTA2ODYgNC40NjY4NCA3LjUwMjQ0IDQuNTQxODYgNy41MDI0NCA0LjYxNzUyVjEwLjA0MDZDNy41MDI0NCAxMC43MjE2IDcuODU5OTQgMTEuMzUwOCA4LjQ0MDI3IDExLjY5MTJMMTMuMDYyMSAxNC40MDI4QzEzLjY0MjQgMTQuNzQzMyAxNC4zNTc0IDE0Ljc0MzMgMTQuOTM3NyAxNC40MDI4TDE5LjU1OTUgMTEuNjkxMkMyMC4xMzk4IDExLjM1MDggMjAuNDk3MyAxMC43MjE2IDIwLjQ5NzMgMTAuMDQwNlY0LjYxNzUyQzIwLjQ5NzMgNC41Njk0MyAyMC40OTU1IDQuNTIxNjEgMjAuNDkyIDQuNDc0MTFDMjAuNDQ1NyAzLjg0OTE1IDIwLjA5ODggMy4yODMzMiAxOS41NTk1IDIuOTY2OVpNOS4zNzgwOSAxMC4wNDA2VjUuNTY4NzRMMTMuMDYyMSA3LjczMTQ5VjEyLjIwMTlMOS4zNzgwOSAxMC4wNDA2Wk0xNS4wNjIxIDEyLjEyOUwxOC42MjE3IDEwLjA0MDZWNS41NzExNkwxNS4wNjIxIDcuNjU5MDRWMTIuMTI5Wk0xMy45OTk5IDYuMDc4NzRMMTcuNjM5NyA0LjA0MTQzTDEzLjk5OTkgMS45MDU5OEwxMC4zNiA0LjA0MTQzTDEzLjk5OTkgNi4wNzg3NFoiIGZpbGw9IiM2OTUyQzQiLz4mI3hhOzxwYXRoIGZpbGwtcnVsZT0iZXZlbm9kZCIgY2xpcC1ydWxlPSJldmVub2RkIiBkPSJNMTIuMDU3IDE2LjMwODdMNy40MzUyNCAxMy41OTcxQzYuODU0OTIgMTMuMjU2NyA2LjEzOTkzIDEzLjI1NjcgNS41NTk2IDEzLjU5NzFMMC45Mzc4MjIgMTYuMzA4N0MwLjQzMDAzNyAxNi42MDY2IDAuMDkyODU1NyAxNy4xMjU2IDAuMDE2NDk0NiAxNy43MDY5TDAuMDEzMDU1OSAxNy43MzQ2QzAuMDA0NDEzNTggMTcuODA4NiAwIDE3Ljg4MzcgMCAxNy45NTkzVjIzLjM4MjRDMCAyNC4wNjMzIDAuMzU3NDk2IDI0LjY5MjYgMC45Mzc4MjIgMjUuMDMzTDUuNTU5NiAyNy43NDQ2QzYuMTM5OTMgMjguMDg1IDYuODU0OTIgMjguMDg1IDcuNDM1MjQgMjcuNzQ0NkwxMi4wNTcgMjUuMDMzQzEyLjYzNzMgMjQuNjkyNiAxMi45OTQ4IDI0LjA2MzMgMTIuOTk0OCAyMy4zODI0VjE3Ljk1OTNDMTIuOTk0OCAxNy45MTEyIDEyLjk5MzEgMTcuODYzNCAxMi45ODk1IDE3LjgxNTlDMTIuOTQzMiAxNy4xOTA5IDEyLjU5NjQgMTYuNjI1MSAxMi4wNTcgMTYuMzA4N1pNMS44NzU2NCAyMy4zODI0VjE4LjkxMDVMNS41NTk2IDIxLjA3MzNWMjUuNTQzN0wxLjg3NTY0IDIzLjM4MjRaTTcuNTU5NiAyNS40NzA4TDExLjExOTIgMjMuMzgyNFYxOC45MTNMNy41NTk2IDIxLjAwMDhWMjUuNDcwOFpNNi40OTc0MiAxOS40MjA1TDEwLjEzNzMgMTcuMzgzMkw2LjQ5NzQyIDE1LjI0NzhMMi44NTc1OCAxNy4zODMyTDYuNDk3NDIgMTkuNDIwNVoiIGZpbGw9IiM2OTUyQzQiLz4mI3hhOzxwYXRoIGZpbGwtcnVsZT0iZXZlbm9kZCIgY2xpcC1ydWxlPSJldmVub2RkIiBkPSJNMjIuNDM1MiAxMy41OTcxTDI3LjA1NyAxNi4zMDg3QzI3LjU5NjQgMTYuNjI1MSAyNy45NDMyIDE3LjE5MDkgMjcuOTg5NSAxNy44MTU5QzI3Ljk5MzEgMTcuODYzNCAyNy45OTQ4IDE3LjkxMTIgMjcuOTk0OCAxNy45NTkzVjIzLjM4MjRDMjcuOTk0OCAyNC4wNjMzIDI3LjYzNzMgMjQuNjkyNiAyNy4wNTcgMjUuMDMzTDIyLjQzNTIgMjcuNzQ0NkMyMS44NTQ5IDI4LjA4NSAyMS4xMzk5IDI4LjA4NSAyMC41NTk2IDI3Ljc0NDZMMTUuOTM3OCAyNS4wMzNDMTUuMzU3NSAyNC42OTI2IDE1IDI0LjA2MzMgMTUgMjMuMzgyNFYxNy45NTkzQzE1IDE3Ljg4MzcgMTUuMDA0NCAxNy44MDg2IDE1LjAxMzEgMTcuNzM0NkwxNS4wMTY1IDE3LjcwNjlDMTUuMDkyOSAxNy4xMjU2IDE1LjQzIDE2LjYwNjYgMTUuOTM3OCAxNi4zMDg3TDIwLjU1OTYgMTMuNTk3MUMyMS4xMzk5IDEzLjI1NjcgMjEuODU0OSAxMy4yNTY3IDIyLjQzNTIgMTMuNTk3MVpNMTYuODc1NiAxOC45MTA1VjIzLjM4MjRMMjAuNTU5NiAyNS41NDM3VjIxLjA3MzNMMTYuODc1NiAxOC45MTA1Wk0yNi4xMTkyIDIzLjM4MjRMMjIuNTU5NiAyNS40NzA4VjIxLjAwMDhMMjYuMTE5MiAxOC45MTNWMjMuMzgyNFpNMjUuMTM3MyAxNy4zODMyTDIxLjQ5NzQgMTkuNDIwNUwxNy44NTc2IDE3LjM4MzJMMjEuNDk3NCAxNS4yNDc4TDI1LjEzNzMgMTcuMzgzMloiIGZpbGw9IiM2OTUyQzQiLz4mI3hhOzwvZz4mI3hhOzxkZWZzPiYjeGE7PGNsaXBQYXRoIGlkPSJjbGlwMF8yOTdfMzczMSI+JiN4YTs8cmVjdCB3aWR0aD0iMjgiIGhlaWdodD0iMjgiIGZpbGw9IndoaXRlIi8+JiN4YTs8L2NsaXBQYXRoPiYjeGE7PC9kZWZzPiYjeGE7PC9zdmc+;hachureGap=4;" vertex="1" parent="1">
          <mxGeometry x="-968" y="-375" width="28" height="28" as="geometry" />
        </mxCell>
        <mxCell id="2lD2j4Fp4vpnpTw80fRY-79" value="" style="rounded=0;whiteSpace=wrap;html=1;shadow=0;fontSize=14;fontColor=#6952C4;strokeColor=#6952C4;fillColor=#F6F5FC;hachureGap=4;" vertex="1" parent="1">
          <mxGeometry x="-716.75" y="-430" width="147.5" height="110" as="geometry" />
        </mxCell>
        <mxCell id="2lD2j4Fp4vpnpTw80fRY-80" value="" style="shape=image;verticalLabelPosition=bottom;verticalAlign=top;imageAspect=0;aspect=fixed;image=data:image/svg+xml,PHN2ZyB4bWxucz0iaHR0cDovL3d3dy53My5vcmcvMjAwMC9zdmciIHdpZHRoPSIyOCIgaGVpZ2h0PSIyOCIgdmlld0JveD0iMCAwIDI4IDI4IiBmaWxsPSJub25lIj4mI3hhOzxnIGNsaXAtcGF0aD0idXJsKCNjbGlwMF8yOTdfMzczMSkiPiYjeGE7PHBhdGggZmlsbC1ydWxlPSJldmVub2RkIiBjbGlwLXJ1bGU9ImV2ZW5vZGQiIGQ9Ik0xOS41NTk1IDIuOTY2OUwxNC45Mzc3IDAuMjU1MzUzQzE0LjM1NzQgLTAuMDg1MTE3NyAxMy42NDI0IC0wLjA4NTExNzcgMTMuMDYyMSAwLjI1NTM1M0w4LjQ0MDI3IDIuOTY2OUM3LjkzMjQ4IDMuMjY0ODEgNy41OTUzIDMuNzgzNzkgNy41MTg5NCA0LjM2NTA2TDcuNTE1NSA0LjM5Mjc4QzcuNTA2ODYgNC40NjY4NCA3LjUwMjQ0IDQuNTQxODYgNy41MDI0NCA0LjYxNzUyVjEwLjA0MDZDNy41MDI0NCAxMC43MjE2IDcuODU5OTQgMTEuMzUwOCA4LjQ0MDI3IDExLjY5MTJMMTMuMDYyMSAxNC40MDI4QzEzLjY0MjQgMTQuNzQzMyAxNC4zNTc0IDE0Ljc0MzMgMTQuOTM3NyAxNC40MDI4TDE5LjU1OTUgMTEuNjkxMkMyMC4xMzk4IDExLjM1MDggMjAuNDk3MyAxMC43MjE2IDIwLjQ5NzMgMTAuMDQwNlY0LjYxNzUyQzIwLjQ5NzMgNC41Njk0MyAyMC40OTU1IDQuNTIxNjEgMjAuNDkyIDQuNDc0MTFDMjAuNDQ1NyAzLjg0OTE1IDIwLjA5ODggMy4yODMzMiAxOS41NTk1IDIuOTY2OVpNOS4zNzgwOSAxMC4wNDA2VjUuNTY4NzRMMTMuMDYyMSA3LjczMTQ5VjEyLjIwMTlMOS4zNzgwOSAxMC4wNDA2Wk0xNS4wNjIxIDEyLjEyOUwxOC42MjE3IDEwLjA0MDZWNS41NzExNkwxNS4wNjIxIDcuNjU5MDRWMTIuMTI5Wk0xMy45OTk5IDYuMDc4NzRMMTcuNjM5NyA0LjA0MTQzTDEzLjk5OTkgMS45MDU5OEwxMC4zNiA0LjA0MTQzTDEzLjk5OTkgNi4wNzg3NFoiIGZpbGw9IiM2OTUyQzQiLz4mI3hhOzxwYXRoIGZpbGwtcnVsZT0iZXZlbm9kZCIgY2xpcC1ydWxlPSJldmVub2RkIiBkPSJNMTIuMDU3IDE2LjMwODdMNy40MzUyNCAxMy41OTcxQzYuODU0OTIgMTMuMjU2NyA2LjEzOTkzIDEzLjI1NjcgNS41NTk2IDEzLjU5NzFMMC45Mzc4MjIgMTYuMzA4N0MwLjQzMDAzNyAxNi42MDY2IDAuMDkyODU1NyAxNy4xMjU2IDAuMDE2NDk0NiAxNy43MDY5TDAuMDEzMDU1OSAxNy43MzQ2QzAuMDA0NDEzNTggMTcuODA4NiAwIDE3Ljg4MzcgMCAxNy45NTkzVjIzLjM4MjRDMCAyNC4wNjMzIDAuMzU3NDk2IDI0LjY5MjYgMC45Mzc4MjIgMjUuMDMzTDUuNTU5NiAyNy43NDQ2QzYuMTM5OTMgMjguMDg1IDYuODU0OTIgMjguMDg1IDcuNDM1MjQgMjcuNzQ0NkwxMi4wNTcgMjUuMDMzQzEyLjYzNzMgMjQuNjkyNiAxMi45OTQ4IDI0LjA2MzMgMTIuOTk0OCAyMy4zODI0VjE3Ljk1OTNDMTIuOTk0OCAxNy45MTEyIDEyLjk5MzEgMTcuODYzNCAxMi45ODk1IDE3LjgxNTlDMTIuOTQzMiAxNy4xOTA5IDEyLjU5NjQgMTYuNjI1MSAxMi4wNTcgMTYuMzA4N1pNMS44NzU2NCAyMy4zODI0VjE4LjkxMDVMNS41NTk2IDIxLjA3MzNWMjUuNTQzN0wxLjg3NTY0IDIzLjM4MjRaTTcuNTU5NiAyNS40NzA4TDExLjExOTIgMjMuMzgyNFYxOC45MTNMNy41NTk2IDIxLjAwMDhWMjUuNDcwOFpNNi40OTc0MiAxOS40MjA1TDEwLjEzNzMgMTcuMzgzMkw2LjQ5NzQyIDE1LjI0NzhMMi44NTc1OCAxNy4zODMyTDYuNDk3NDIgMTkuNDIwNVoiIGZpbGw9IiM2OTUyQzQiLz4mI3hhOzxwYXRoIGZpbGwtcnVsZT0iZXZlbm9kZCIgY2xpcC1ydWxlPSJldmVub2RkIiBkPSJNMjIuNDM1MiAxMy41OTcxTDI3LjA1NyAxNi4zMDg3QzI3LjU5NjQgMTYuNjI1MSAyNy45NDMyIDE3LjE5MDkgMjcuOTg5NSAxNy44MTU5QzI3Ljk5MzEgMTcuODYzNCAyNy45OTQ4IDE3LjkxMTIgMjcuOTk0OCAxNy45NTkzVjIzLjM4MjRDMjcuOTk0OCAyNC4wNjMzIDI3LjYzNzMgMjQuNjkyNiAyNy4wNTcgMjUuMDMzTDIyLjQzNTIgMjcuNzQ0NkMyMS44NTQ5IDI4LjA4NSAyMS4xMzk5IDI4LjA4NSAyMC41NTk2IDI3Ljc0NDZMMTUuOTM3OCAyNS4wMzNDMTUuMzU3NSAyNC42OTI2IDE1IDI0LjA2MzMgMTUgMjMuMzgyNFYxNy45NTkzQzE1IDE3Ljg4MzcgMTUuMDA0NCAxNy44MDg2IDE1LjAxMzEgMTcuNzM0NkwxNS4wMTY1IDE3LjcwNjlDMTUuMDkyOSAxNy4xMjU2IDE1LjQzIDE2LjYwNjYgMTUuOTM3OCAxNi4zMDg3TDIwLjU1OTYgMTMuNTk3MUMyMS4xMzk5IDEzLjI1NjcgMjEuODU0OSAxMy4yNTY3IDIyLjQzNTIgMTMuNTk3MVpNMTYuODc1NiAxOC45MTA1VjIzLjM4MjRMMjAuNTU5NiAyNS41NDM3VjIxLjA3MzNMMTYuODc1NiAxOC45MTA1Wk0yNi4xMTkyIDIzLjM4MjRMMjIuNTU5NiAyNS40NzA4VjIxLjAwMDhMMjYuMTE5MiAxOC45MTNWMjMuMzgyNFpNMjUuMTM3MyAxNy4zODMyTDIxLjQ5NzQgMTkuNDIwNUwxNy44NTc2IDE3LjM4MzJMMjEuNDk3NCAxNS4yNDc4TDI1LjEzNzMgMTcuMzgzMloiIGZpbGw9IiM2OTUyQzQiLz4mI3hhOzwvZz4mI3hhOzxkZWZzPiYjeGE7PGNsaXBQYXRoIGlkPSJjbGlwMF8yOTdfMzczMSI+JiN4YTs8cmVjdCB3aWR0aD0iMjgiIGhlaWdodD0iMjgiIGZpbGw9IndoaXRlIi8+JiN4YTs8L2NsaXBQYXRoPiYjeGE7PC9kZWZzPiYjeGE7PC9zdmc+;hachureGap=4;" vertex="1" parent="1">
          <mxGeometry x="-618.25" y="-371" width="28" height="28" as="geometry" />
        </mxCell>
        <mxCell id="2lD2j4Fp4vpnpTw80fRY-81" value="" style="shape=image;verticalLabelPosition=bottom;verticalAlign=top;imageAspect=0;aspect=fixed;image=data:image/svg+xml,PHN2ZyB4bWxucz0iaHR0cDovL3d3dy53My5vcmcvMjAwMC9zdmciIHdpZHRoPSIyOCIgaGVpZ2h0PSIyOCIgdmlld0JveD0iMCAwIDI4IDI4IiBmaWxsPSJub25lIj4mI3hhOzxnIGNsaXAtcGF0aD0idXJsKCNjbGlwMF8yOTdfMzczMSkiPiYjeGE7PHBhdGggZmlsbC1ydWxlPSJldmVub2RkIiBjbGlwLXJ1bGU9ImV2ZW5vZGQiIGQ9Ik0xOS41NTk1IDIuOTY2OUwxNC45Mzc3IDAuMjU1MzUzQzE0LjM1NzQgLTAuMDg1MTE3NyAxMy42NDI0IC0wLjA4NTExNzcgMTMuMDYyMSAwLjI1NTM1M0w4LjQ0MDI3IDIuOTY2OUM3LjkzMjQ4IDMuMjY0ODEgNy41OTUzIDMuNzgzNzkgNy41MTg5NCA0LjM2NTA2TDcuNTE1NSA0LjM5Mjc4QzcuNTA2ODYgNC40NjY4NCA3LjUwMjQ0IDQuNTQxODYgNy41MDI0NCA0LjYxNzUyVjEwLjA0MDZDNy41MDI0NCAxMC43MjE2IDcuODU5OTQgMTEuMzUwOCA4LjQ0MDI3IDExLjY5MTJMMTMuMDYyMSAxNC40MDI4QzEzLjY0MjQgMTQuNzQzMyAxNC4zNTc0IDE0Ljc0MzMgMTQuOTM3NyAxNC40MDI4TDE5LjU1OTUgMTEuNjkxMkMyMC4xMzk4IDExLjM1MDggMjAuNDk3MyAxMC43MjE2IDIwLjQ5NzMgMTAuMDQwNlY0LjYxNzUyQzIwLjQ5NzMgNC41Njk0MyAyMC40OTU1IDQuNTIxNjEgMjAuNDkyIDQuNDc0MTFDMjAuNDQ1NyAzLjg0OTE1IDIwLjA5ODggMy4yODMzMiAxOS41NTk1IDIuOTY2OVpNOS4zNzgwOSAxMC4wNDA2VjUuNTY4NzRMMTMuMDYyMSA3LjczMTQ5VjEyLjIwMTlMOS4zNzgwOSAxMC4wNDA2Wk0xNS4wNjIxIDEyLjEyOUwxOC42MjE3IDEwLjA0MDZWNS41NzExNkwxNS4wNjIxIDcuNjU5MDRWMTIuMTI5Wk0xMy45OTk5IDYuMDc4NzRMMTcuNjM5NyA0LjA0MTQzTDEzLjk5OTkgMS45MDU5OEwxMC4zNiA0LjA0MTQzTDEzLjk5OTkgNi4wNzg3NFoiIGZpbGw9IiM2OTUyQzQiLz4mI3hhOzxwYXRoIGZpbGwtcnVsZT0iZXZlbm9kZCIgY2xpcC1ydWxlPSJldmVub2RkIiBkPSJNMTIuMDU3IDE2LjMwODdMNy40MzUyNCAxMy41OTcxQzYuODU0OTIgMTMuMjU2NyA2LjEzOTkzIDEzLjI1NjcgNS41NTk2IDEzLjU5NzFMMC45Mzc4MjIgMTYuMzA4N0MwLjQzMDAzNyAxNi42MDY2IDAuMDkyODU1NyAxNy4xMjU2IDAuMDE2NDk0NiAxNy43MDY5TDAuMDEzMDU1OSAxNy43MzQ2QzAuMDA0NDEzNTggMTcuODA4NiAwIDE3Ljg4MzcgMCAxNy45NTkzVjIzLjM4MjRDMCAyNC4wNjMzIDAuMzU3NDk2IDI0LjY5MjYgMC45Mzc4MjIgMjUuMDMzTDUuNTU5NiAyNy43NDQ2QzYuMTM5OTMgMjguMDg1IDYuODU0OTIgMjguMDg1IDcuNDM1MjQgMjcuNzQ0NkwxMi4wNTcgMjUuMDMzQzEyLjYzNzMgMjQuNjkyNiAxMi45OTQ4IDI0LjA2MzMgMTIuOTk0OCAyMy4zODI0VjE3Ljk1OTNDMTIuOTk0OCAxNy45MTEyIDEyLjk5MzEgMTcuODYzNCAxMi45ODk1IDE3LjgxNTlDMTIuOTQzMiAxNy4xOTA5IDEyLjU5NjQgMTYuNjI1MSAxMi4wNTcgMTYuMzA4N1pNMS44NzU2NCAyMy4zODI0VjE4LjkxMDVMNS41NTk2IDIxLjA3MzNWMjUuNTQzN0wxLjg3NTY0IDIzLjM4MjRaTTcuNTU5NiAyNS40NzA4TDExLjExOTIgMjMuMzgyNFYxOC45MTNMNy41NTk2IDIxLjAwMDhWMjUuNDcwOFpNNi40OTc0MiAxOS40MjA1TDEwLjEzNzMgMTcuMzgzMkw2LjQ5NzQyIDE1LjI0NzhMMi44NTc1OCAxNy4zODMyTDYuNDk3NDIgMTkuNDIwNVoiIGZpbGw9IiM2OTUyQzQiLz4mI3hhOzxwYXRoIGZpbGwtcnVsZT0iZXZlbm9kZCIgY2xpcC1ydWxlPSJldmVub2RkIiBkPSJNMjIuNDM1MiAxMy41OTcxTDI3LjA1NyAxNi4zMDg3QzI3LjU5NjQgMTYuNjI1MSAyNy45NDMyIDE3LjE5MDkgMjcuOTg5NSAxNy44MTU5QzI3Ljk5MzEgMTcuODYzNCAyNy45OTQ4IDE3LjkxMTIgMjcuOTk0OCAxNy45NTkzVjIzLjM4MjRDMjcuOTk0OCAyNC4wNjMzIDI3LjYzNzMgMjQuNjkyNiAyNy4wNTcgMjUuMDMzTDIyLjQzNTIgMjcuNzQ0NkMyMS44NTQ5IDI4LjA4NSAyMS4xMzk5IDI4LjA4NSAyMC41NTk2IDI3Ljc0NDZMMTUuOTM3OCAyNS4wMzNDMTUuMzU3NSAyNC42OTI2IDE1IDI0LjA2MzMgMTUgMjMuMzgyNFYxNy45NTkzQzE1IDE3Ljg4MzcgMTUuMDA0NCAxNy44MDg2IDE1LjAxMzEgMTcuNzM0NkwxNS4wMTY1IDE3LjcwNjlDMTUuMDkyOSAxNy4xMjU2IDE1LjQzIDE2LjYwNjYgMTUuOTM3OCAxNi4zMDg3TDIwLjU1OTYgMTMuNTk3MUMyMS4xMzk5IDEzLjI1NjcgMjEuODU0OSAxMy4yNTY3IDIyLjQzNTIgMTMuNTk3MVpNMTYuODc1NiAxOC45MTA1VjIzLjM4MjRMMjAuNTU5NiAyNS41NDM3VjIxLjA3MzNMMTYuODc1NiAxOC45MTA1Wk0yNi4xMTkyIDIzLjM4MjRMMjIuNTU5NiAyNS40NzA4VjIxLjAwMDhMMjYuMTE5MiAxOC45MTNWMjMuMzgyNFpNMjUuMTM3MyAxNy4zODMyTDIxLjQ5NzQgMTkuNDIwNUwxNy44NTc2IDE3LjM4MzJMMjEuNDk3NCAxNS4yNDc4TDI1LjEzNzMgMTcuMzgzMloiIGZpbGw9IiM2OTUyQzQiLz4mI3hhOzwvZz4mI3hhOzxkZWZzPiYjeGE7PGNsaXBQYXRoIGlkPSJjbGlwMF8yOTdfMzczMSI+JiN4YTs8cmVjdCB3aWR0aD0iMjgiIGhlaWdodD0iMjgiIGZpbGw9IndoaXRlIi8+JiN4YTs8L2NsaXBQYXRoPiYjeGE7PC9kZWZzPiYjeGE7PC9zdmc+;hachureGap=4;" vertex="1" parent="1">
          <mxGeometry x="-685.75" y="-371" width="28" height="28" as="geometry" />
        </mxCell>
        <mxCell id="2lD2j4Fp4vpnpTw80fRY-82" value="node" style="text;html=1;resizable=0;autosize=1;align=left;verticalAlign=middle;points=[];fillColor=none;strokeColor=none;rounded=0;fontColor=#6952C4;fontStyle=1;fontSize=14;hachureGap=4;" vertex="1" parent="1">
          <mxGeometry x="-685.75" y="-411" width="50" height="20" as="geometry" />
        </mxCell>
        <mxCell id="2lD2j4Fp4vpnpTw80fRY-83" value="部门管理" style="rounded=0;whiteSpace=wrap;html=1;shadow=0;fontSize=14;fontColor=#6952C4;strokeColor=#6952C4;fillColor=#F6F5FC;hachureGap=4;" vertex="1" parent="1">
          <mxGeometry x="-80" y="-495" width="101" height="34" as="geometry" />
        </mxCell>
        <mxCell id="2lD2j4Fp4vpnpTw80fRY-84" value="项目管理" style="rounded=0;whiteSpace=wrap;html=1;shadow=0;fontSize=14;fontColor=#6952C4;strokeColor=#6952C4;fillColor=#F6F5FC;hachureGap=4;" vertex="1" parent="1">
          <mxGeometry x="-80" y="-384.5" width="102" height="34" as="geometry" />
        </mxCell>
        <mxCell id="2lD2j4Fp4vpnpTw80fRY-85" value="用户管理" style="rounded=0;whiteSpace=wrap;html=1;shadow=0;fontSize=14;fontColor=#6952C4;strokeColor=#6952C4;fillColor=#F6F5FC;hachureGap=4;" vertex="1" parent="1">
          <mxGeometry x="-72.5" y="-274" width="101" height="34" as="geometry" />
        </mxCell>
        <mxCell id="2lD2j4Fp4vpnpTw80fRY-86" value="身份管理" style="rounded=0;whiteSpace=wrap;html=1;shadow=0;fontSize=14;fontColor=#6952C4;strokeColor=#6952C4;fillColor=#F6F5FC;hachureGap=4;" vertex="1" parent="1">
          <mxGeometry x="-70.5" y="-180" width="101" height="34" as="geometry" />
        </mxCell>
        <mxCell id="2lD2j4Fp4vpnpTw80fRY-87" value="授权管理" style="rounded=0;whiteSpace=wrap;html=1;shadow=0;fontSize=14;fontColor=#6952C4;strokeColor=#6952C4;fillColor=#F6F5FC;hachureGap=4;" vertex="1" parent="1">
          <mxGeometry x="-72.5" y="-80" width="102" height="34" as="geometry" />
        </mxCell>
        <mxCell id="2lD2j4Fp4vpnpTw80fRY-88" value="访问密钥" style="rounded=0;whiteSpace=wrap;html=1;shadow=0;fontSize=14;fontColor=#6952C4;strokeColor=#6952C4;fillColor=#F6F5FC;hachureGap=4;" vertex="1" parent="1">
          <mxGeometry x="-70.5" y="18" width="101" height="34" as="geometry" />
        </mxCell>
        <mxCell id="2lD2j4Fp4vpnpTw80fRY-89" value="" style="rounded=0;whiteSpace=wrap;html=1;shadow=0;dashed=1;fillColor=#F6F5FC;strokeColor=none;hachureGap=4;" vertex="1" parent="1">
          <mxGeometry x="-1078" y="160" width="1208" height="106" as="geometry" />
        </mxCell>
        <mxCell id="2lD2j4Fp4vpnpTw80fRY-93" value="" style="group;hachureGap=4;" vertex="1" connectable="0" parent="1">
          <mxGeometry x="-1040" y="165.9999999999999" width="80" height="84" as="geometry" />
        </mxCell>
        <mxCell id="2lD2j4Fp4vpnpTw80fRY-94" value="" style="shape=image;verticalLabelPosition=bottom;labelBackgroundColor=#ffffff;verticalAlign=top;aspect=fixed;imageAspect=0;image=data:image/svg+xml,PHN2ZyB4bWxucz0iaHR0cDovL3d3dy53My5vcmcvMjAwMC9zdmciIHdpZHRoPSI2NCIgaGVpZ2h0PSI2NCIgdmlld0JveD0iMCAwIDY0IDY0IiBmaWxsPSJub25lIj4mI3hhOzxwYXRoIGQ9Ik0xLjU4NzcxIDMwLjI1TDE1LjI3ODMgNi41MzcxOUMxNS45MDM1IDUuNDU0MjggMTcuMDU5IDQuNzg3MTkgMTguMzA5NCA0Ljc4NzE5SDQ1LjY5MDZDNDYuOTQxIDQuNzg3MTkgNDguMDk2NSA1LjQ1NDI4IDQ4LjcyMTcgNi41MzcxOUw2Mi40MTIzIDMwLjI1QzYzLjAzNzUgMzEuMzMyOSA2My4wMzc1IDMyLjY2NzEgNjIuNDEyMyAzMy43NUw0OC43MjE3IDU3LjQ2MjhDNDguMDk2NSA1OC41NDU3IDQ2Ljk0MSA1OS4yMTI4IDQ1LjY5MDYgNTkuMjEyOEgxOC4zMDk0QzE3LjA1OSA1OS4yMTI4IDE1LjkwMzUgNTguNTQ1NyAxNS4yNzgzIDU3LjQ2MjhMMS41ODc3MSAzMy43NUMwLjk2MjQ5OCAzMi42NjcxIDAuOTYyNDk4IDMxLjMzMjkgMS41ODc3MSAzMC4yNVoiIGZpbGw9IndoaXRlIiBzdHJva2U9IiNDNUNFREUiLz4mI3hhOzxwYXRoIGZpbGwtcnVsZT0iZXZlbm9kZCIgY2xpcC1ydWxlPSJldmVub2RkIiBkPSJNNDIuNjk0MiAyNC4yNjc2TDMzLjM2OTggMTguODg0MkMzMi41MDM1IDE4LjM4NCAzMS40MzYxIDE4LjM4NCAzMC41Njk4IDE4Ljg4NDJMMjEuMjQ1NSAyNC4yNjc2QzIwLjM3OTEgMjQuNzY3OCAxOS44NDU1IDI1LjY5MjEgMTkuODQ1NSAyNi42OTI1VjM3LjQ1OTNDMTkuODQ1NSAzOC40NTk2IDIwLjM3OTEgMzkuMzg0IDIxLjI0NTUgMzkuODg0MkwzMC41Njk4IDQ1LjI2NzZDMzEuNDM2MSA0NS43Njc4IDMyLjUwMzUgNDUuNzY3OCAzMy4zNjk4IDQ1LjI2NzZMNDIuNjk0MiAzOS44ODQyQzQzLjU2MDUgMzkuMzg0IDQ0LjA5NDIgMzguNDU5NiA0NC4wOTQyIDM3LjQ1OTNWMjYuNjkyNUM0NC4wOTQyIDI1LjY5MjEgNDMuNTYwNSAyNC43Njc4IDQyLjY5NDIgMjQuMjY3NlpNMzEuNzMxOCAyMC42NTA3TDMxLjYxOTggMjAuNzAyOEwyMi44OTggMjUuNzM4M0wzMS45NjcgMzAuOTEyNUw0MS4wNDc5IDI1Ljc0MkwzMi4zMTk4IDIwLjcwMjhDMzIuMTM5MyAyMC41OTg2IDMxLjkyMzkgMjAuNTgxMiAzMS43MzE4IDIwLjY1MDdaTTIxLjk0NTUgMzcuNDU5M1YyNy42MThMMzAuOTE3IDMyLjczNjdMMzAuOTE3OSA0My4wNDM3TDIyLjI5NTUgMzguMDY1NUwyMi4xOTQzIDM3Ljk5NDZDMjIuMDM4MSAzNy44NjI5IDIxLjk0NTUgMzcuNjY3NyAyMS45NDU1IDM3LjQ1OTNaTTQxLjY0NDIgMzguMDY1NUwzMy4wMTc5IDQzLjA0NTlMMzMuMDE3IDMyLjczODFMNDEuOTk0MiAyNy42MjUzVjM3LjQ1OTNMNDEuOTgzMyAzNy41ODIzQzQxLjk0NzQgMzcuNzgzNSA0MS44MjQ2IDM3Ljk2MTMgNDEuNjQ0MiAzOC4wNjU1WiIgZmlsbD0iIzY5NTJDNCIvPiYjeGE7PC9zdmc+;hachureGap=4;" vertex="1" parent="2lD2j4Fp4vpnpTw80fRY-93">
          <mxGeometry x="8" width="64" height="64" as="geometry" />
        </mxCell>
        <mxCell id="2lD2j4Fp4vpnpTw80fRY-95" value="Intel" style="text;html=1;resizable=0;autosize=1;align=center;verticalAlign=middle;points=[];fillColor=none;strokeColor=none;rounded=0;hachureGap=4;" vertex="1" parent="2lD2j4Fp4vpnpTw80fRY-93">
          <mxGeometry x="20" y="64" width="40" height="20" as="geometry" />
        </mxCell>
        <mxCell id="2lD2j4Fp4vpnpTw80fRY-96" value="" style="group;hachureGap=4;" vertex="1" connectable="0" parent="1">
          <mxGeometry x="-900" y="165.9999999999999" width="80" height="84" as="geometry" />
        </mxCell>
        <mxCell id="2lD2j4Fp4vpnpTw80fRY-97" value="" style="shape=image;verticalLabelPosition=bottom;labelBackgroundColor=#ffffff;verticalAlign=top;aspect=fixed;imageAspect=0;image=data:image/svg+xml,PHN2ZyB4bWxucz0iaHR0cDovL3d3dy53My5vcmcvMjAwMC9zdmciIHdpZHRoPSI2NCIgaGVpZ2h0PSI2NCIgdmlld0JveD0iMCAwIDY0IDY0IiBmaWxsPSJub25lIj4mI3hhOzxwYXRoIGQ9Ik0xLjU4NzcxIDMwLjI1TDE1LjI3ODMgNi41MzcxOUMxNS45MDM1IDUuNDU0MjggMTcuMDU5IDQuNzg3MTkgMTguMzA5NCA0Ljc4NzE5SDQ1LjY5MDZDNDYuOTQxIDQuNzg3MTkgNDguMDk2NSA1LjQ1NDI4IDQ4LjcyMTcgNi41MzcxOUw2Mi40MTIzIDMwLjI1QzYzLjAzNzUgMzEuMzMyOSA2My4wMzc1IDMyLjY2NzEgNjIuNDEyMyAzMy43NUw0OC43MjE3IDU3LjQ2MjhDNDguMDk2NSA1OC41NDU3IDQ2Ljk0MSA1OS4yMTI4IDQ1LjY5MDYgNTkuMjEyOEgxOC4zMDk0QzE3LjA1OSA1OS4yMTI4IDE1LjkwMzUgNTguNTQ1NyAxNS4yNzgzIDU3LjQ2MjhMMS41ODc3MSAzMy43NUMwLjk2MjQ5OCAzMi42NjcxIDAuOTYyNDk4IDMxLjMzMjkgMS41ODc3MSAzMC4yNVoiIGZpbGw9IndoaXRlIiBzdHJva2U9IiNDNUNFREUiLz4mI3hhOzxwYXRoIGZpbGwtcnVsZT0iZXZlbm9kZCIgY2xpcC1ydWxlPSJldmVub2RkIiBkPSJNNDIuNjk0MiAyNC4yNjc2TDMzLjM2OTggMTguODg0MkMzMi41MDM1IDE4LjM4NCAzMS40MzYxIDE4LjM4NCAzMC41Njk4IDE4Ljg4NDJMMjEuMjQ1NSAyNC4yNjc2QzIwLjM3OTEgMjQuNzY3OCAxOS44NDU1IDI1LjY5MjEgMTkuODQ1NSAyNi42OTI1VjM3LjQ1OTNDMTkuODQ1NSAzOC40NTk2IDIwLjM3OTEgMzkuMzg0IDIxLjI0NTUgMzkuODg0MkwzMC41Njk4IDQ1LjI2NzZDMzEuNDM2MSA0NS43Njc4IDMyLjUwMzUgNDUuNzY3OCAzMy4zNjk4IDQ1LjI2NzZMNDIuNjk0MiAzOS44ODQyQzQzLjU2MDUgMzkuMzg0IDQ0LjA5NDIgMzguNDU5NiA0NC4wOTQyIDM3LjQ1OTNWMjYuNjkyNUM0NC4wOTQyIDI1LjY5MjEgNDMuNTYwNSAyNC43Njc4IDQyLjY5NDIgMjQuMjY3NlpNMzEuNzMxOCAyMC42NTA3TDMxLjYxOTggMjAuNzAyOEwyMi44OTggMjUuNzM4M0wzMS45NjcgMzAuOTEyNUw0MS4wNDc5IDI1Ljc0MkwzMi4zMTk4IDIwLjcwMjhDMzIuMTM5MyAyMC41OTg2IDMxLjkyMzkgMjAuNTgxMiAzMS43MzE4IDIwLjY1MDdaTTIxLjk0NTUgMzcuNDU5M1YyNy42MThMMzAuOTE3IDMyLjczNjdMMzAuOTE3OSA0My4wNDM3TDIyLjI5NTUgMzguMDY1NUwyMi4xOTQzIDM3Ljk5NDZDMjIuMDM4MSAzNy44NjI5IDIxLjk0NTUgMzcuNjY3NyAyMS45NDU1IDM3LjQ1OTNaTTQxLjY0NDIgMzguMDY1NUwzMy4wMTc5IDQzLjA0NTlMMzMuMDE3IDMyLjczODFMNDEuOTk0MiAyNy42MjUzVjM3LjQ1OTNMNDEuOTgzMyAzNy41ODIzQzQxLjk0NzQgMzcuNzgzNSA0MS44MjQ2IDM3Ljk2MTMgNDEuNjQ0MiAzOC4wNjU1WiIgZmlsbD0iIzY5NTJDNCIvPiYjeGE7PC9zdmc+;hachureGap=4;" vertex="1" parent="2lD2j4Fp4vpnpTw80fRY-96">
          <mxGeometry x="8" width="64" height="64" as="geometry" />
        </mxCell>
        <mxCell id="2lD2j4Fp4vpnpTw80fRY-98" value="A M D" style="text;html=1;resizable=0;autosize=1;align=center;verticalAlign=middle;points=[];fillColor=none;strokeColor=none;rounded=0;hachureGap=4;" vertex="1" parent="2lD2j4Fp4vpnpTw80fRY-96">
          <mxGeometry x="15" y="64" width="50" height="20" as="geometry" />
        </mxCell>
        <mxCell id="2lD2j4Fp4vpnpTw80fRY-99" value="" style="group;hachureGap=4;" vertex="1" connectable="0" parent="1">
          <mxGeometry x="-620" y="165.9999999999999" width="80" height="84" as="geometry" />
        </mxCell>
        <mxCell id="2lD2j4Fp4vpnpTw80fRY-100" value="" style="shape=image;verticalLabelPosition=bottom;labelBackgroundColor=#ffffff;verticalAlign=top;aspect=fixed;imageAspect=0;image=data:image/svg+xml,PHN2ZyB4bWxucz0iaHR0cDovL3d3dy53My5vcmcvMjAwMC9zdmciIHdpZHRoPSI2NCIgaGVpZ2h0PSI2NCIgdmlld0JveD0iMCAwIDY0IDY0IiBmaWxsPSJub25lIj4mI3hhOzxwYXRoIGQ9Ik0xLjU4NzcxIDMwLjI1TDE1LjI3ODMgNi41MzcxOUMxNS45MDM1IDUuNDU0MjggMTcuMDU5IDQuNzg3MTkgMTguMzA5NCA0Ljc4NzE5SDQ1LjY5MDZDNDYuOTQxIDQuNzg3MTkgNDguMDk2NSA1LjQ1NDI4IDQ4LjcyMTcgNi41MzcxOUw2Mi40MTIzIDMwLjI1QzYzLjAzNzUgMzEuMzMyOSA2My4wMzc1IDMyLjY2NzEgNjIuNDEyMyAzMy43NUw0OC43MjE3IDU3LjQ2MjhDNDguMDk2NSA1OC41NDU3IDQ2Ljk0MSA1OS4yMTI4IDQ1LjY5MDYgNTkuMjEyOEgxOC4zMDk0QzE3LjA1OSA1OS4yMTI4IDE1LjkwMzUgNTguNTQ1NyAxNS4yNzgzIDU3LjQ2MjhMMS41ODc3MSAzMy43NUMwLjk2MjQ5OCAzMi42NjcxIDAuOTYyNDk4IDMxLjMzMjkgMS41ODc3MSAzMC4yNVoiIGZpbGw9IndoaXRlIiBzdHJva2U9IiNDNUNFREUiLz4mI3hhOzxwYXRoIGZpbGwtcnVsZT0iZXZlbm9kZCIgY2xpcC1ydWxlPSJldmVub2RkIiBkPSJNNDIuNjk0MiAyNC4yNjc2TDMzLjM2OTggMTguODg0MkMzMi41MDM1IDE4LjM4NCAzMS40MzYxIDE4LjM4NCAzMC41Njk4IDE4Ljg4NDJMMjEuMjQ1NSAyNC4yNjc2QzIwLjM3OTEgMjQuNzY3OCAxOS44NDU1IDI1LjY5MjEgMTkuODQ1NSAyNi42OTI1VjM3LjQ1OTNDMTkuODQ1NSAzOC40NTk2IDIwLjM3OTEgMzkuMzg0IDIxLjI0NTUgMzkuODg0MkwzMC41Njk4IDQ1LjI2NzZDMzEuNDM2MSA0NS43Njc4IDMyLjUwMzUgNDUuNzY3OCAzMy4zNjk4IDQ1LjI2NzZMNDIuNjk0MiAzOS44ODQyQzQzLjU2MDUgMzkuMzg0IDQ0LjA5NDIgMzguNDU5NiA0NC4wOTQyIDM3LjQ1OTNWMjYuNjkyNUM0NC4wOTQyIDI1LjY5MjEgNDMuNTYwNSAyNC43Njc4IDQyLjY5NDIgMjQuMjY3NlpNMzEuNzMxOCAyMC42NTA3TDMxLjYxOTggMjAuNzAyOEwyMi44OTggMjUuNzM4M0wzMS45NjcgMzAuOTEyNUw0MS4wNDc5IDI1Ljc0MkwzMi4zMTk4IDIwLjcwMjhDMzIuMTM5MyAyMC41OTg2IDMxLjkyMzkgMjAuNTgxMiAzMS43MzE4IDIwLjY1MDdaTTIxLjk0NTUgMzcuNDU5M1YyNy42MThMMzAuOTE3IDMyLjczNjdMMzAuOTE3OSA0My4wNDM3TDIyLjI5NTUgMzguMDY1NUwyMi4xOTQzIDM3Ljk5NDZDMjIuMDM4MSAzNy44NjI5IDIxLjk0NTUgMzcuNjY3NyAyMS45NDU1IDM3LjQ1OTNaTTQxLjY0NDIgMzguMDY1NUwzMy4wMTc5IDQzLjA0NTlMMzMuMDE3IDMyLjczODFMNDEuOTk0MiAyNy42MjUzVjM3LjQ1OTNMNDEuOTgzMyAzNy41ODIzQzQxLjk0NzQgMzcuNzgzNSA0MS44MjQ2IDM3Ljk2MTMgNDEuNjQ0MiAzOC4wNjU1WiIgZmlsbD0iIzY5NTJDNCIvPiYjeGE7PC9zdmc+;hachureGap=4;" vertex="1" parent="2lD2j4Fp4vpnpTw80fRY-99">
          <mxGeometry x="8" width="64" height="64" as="geometry" />
        </mxCell>
        <mxCell id="2lD2j4Fp4vpnpTw80fRY-101" value="鲲鹏" style="text;html=1;resizable=0;autosize=1;align=center;verticalAlign=middle;points=[];fillColor=none;strokeColor=none;rounded=0;hachureGap=4;" vertex="1" parent="2lD2j4Fp4vpnpTw80fRY-99">
          <mxGeometry x="20" y="64" width="40" height="20" as="geometry" />
        </mxCell>
        <mxCell id="2lD2j4Fp4vpnpTw80fRY-107" value="" style="group;hachureGap=4;" vertex="1" connectable="0" parent="1">
          <mxGeometry x="-770" y="165.9999999999999" width="80" height="84" as="geometry" />
        </mxCell>
        <mxCell id="2lD2j4Fp4vpnpTw80fRY-108" value="" style="shape=image;verticalLabelPosition=bottom;labelBackgroundColor=#ffffff;verticalAlign=top;aspect=fixed;imageAspect=0;image=data:image/svg+xml,PHN2ZyB4bWxucz0iaHR0cDovL3d3dy53My5vcmcvMjAwMC9zdmciIHdpZHRoPSI2NCIgaGVpZ2h0PSI2NCIgdmlld0JveD0iMCAwIDY0IDY0IiBmaWxsPSJub25lIj4mI3hhOzxwYXRoIGQ9Ik0xLjU4NzcxIDMwLjI1TDE1LjI3ODMgNi41MzcxOUMxNS45MDM1IDUuNDU0MjggMTcuMDU5IDQuNzg3MTkgMTguMzA5NCA0Ljc4NzE5SDQ1LjY5MDZDNDYuOTQxIDQuNzg3MTkgNDguMDk2NSA1LjQ1NDI4IDQ4LjcyMTcgNi41MzcxOUw2Mi40MTIzIDMwLjI1QzYzLjAzNzUgMzEuMzMyOSA2My4wMzc1IDMyLjY2NzEgNjIuNDEyMyAzMy43NUw0OC43MjE3IDU3LjQ2MjhDNDguMDk2NSA1OC41NDU3IDQ2Ljk0MSA1OS4yMTI4IDQ1LjY5MDYgNTkuMjEyOEgxOC4zMDk0QzE3LjA1OSA1OS4yMTI4IDE1LjkwMzUgNTguNTQ1NyAxNS4yNzgzIDU3LjQ2MjhMMS41ODc3MSAzMy43NUMwLjk2MjQ5OCAzMi42NjcxIDAuOTYyNDk4IDMxLjMzMjkgMS41ODc3MSAzMC4yNVoiIGZpbGw9IndoaXRlIiBzdHJva2U9IiNDNUNFREUiLz4mI3hhOzxwYXRoIGZpbGwtcnVsZT0iZXZlbm9kZCIgY2xpcC1ydWxlPSJldmVub2RkIiBkPSJNNDIuNjk0MiAyNC4yNjc2TDMzLjM2OTggMTguODg0MkMzMi41MDM1IDE4LjM4NCAzMS40MzYxIDE4LjM4NCAzMC41Njk4IDE4Ljg4NDJMMjEuMjQ1NSAyNC4yNjc2QzIwLjM3OTEgMjQuNzY3OCAxOS44NDU1IDI1LjY5MjEgMTkuODQ1NSAyNi42OTI1VjM3LjQ1OTNDMTkuODQ1NSAzOC40NTk2IDIwLjM3OTEgMzkuMzg0IDIxLjI0NTUgMzkuODg0MkwzMC41Njk4IDQ1LjI2NzZDMzEuNDM2MSA0NS43Njc4IDMyLjUwMzUgNDUuNzY3OCAzMy4zNjk4IDQ1LjI2NzZMNDIuNjk0MiAzOS44ODQyQzQzLjU2MDUgMzkuMzg0IDQ0LjA5NDIgMzguNDU5NiA0NC4wOTQyIDM3LjQ1OTNWMjYuNjkyNUM0NC4wOTQyIDI1LjY5MjEgNDMuNTYwNSAyNC43Njc4IDQyLjY5NDIgMjQuMjY3NlpNMzEuNzMxOCAyMC42NTA3TDMxLjYxOTggMjAuNzAyOEwyMi44OTggMjUuNzM4M0wzMS45NjcgMzAuOTEyNUw0MS4wNDc5IDI1Ljc0MkwzMi4zMTk4IDIwLjcwMjhDMzIuMTM5MyAyMC41OTg2IDMxLjkyMzkgMjAuNTgxMiAzMS43MzE4IDIwLjY1MDdaTTIxLjk0NTUgMzcuNDU5M1YyNy42MThMMzAuOTE3IDMyLjczNjdMMzAuOTE3OSA0My4wNDM3TDIyLjI5NTUgMzguMDY1NUwyMi4xOTQzIDM3Ljk5NDZDMjIuMDM4MSAzNy44NjI5IDIxLjk0NTUgMzcuNjY3NyAyMS45NDU1IDM3LjQ1OTNaTTQxLjY0NDIgMzguMDY1NUwzMy4wMTc5IDQzLjA0NTlMMzMuMDE3IDMyLjczODFMNDEuOTk0MiAyNy42MjUzVjM3LjQ1OTNMNDEuOTgzMyAzNy41ODIzQzQxLjk0NzQgMzcuNzgzNSA0MS44MjQ2IDM3Ljk2MTMgNDEuNjQ0MiAzOC4wNjU1WiIgZmlsbD0iIzY5NTJDNCIvPiYjeGE7PC9zdmc+;hachureGap=4;" vertex="1" parent="2lD2j4Fp4vpnpTw80fRY-107">
          <mxGeometry x="8" width="64" height="64" as="geometry" />
        </mxCell>
        <mxCell id="2lD2j4Fp4vpnpTw80fRY-109" value="海光" style="text;html=1;resizable=0;autosize=1;align=center;verticalAlign=middle;points=[];fillColor=none;strokeColor=none;rounded=0;hachureGap=4;" vertex="1" parent="2lD2j4Fp4vpnpTw80fRY-107">
          <mxGeometry x="20" y="64" width="40" height="20" as="geometry" />
        </mxCell>
        <mxCell id="2lD2j4Fp4vpnpTw80fRY-110" value="" style="group;hachureGap=4;" vertex="1" connectable="0" parent="1">
          <mxGeometry x="-480" y="165.9999999999999" width="80" height="84" as="geometry" />
        </mxCell>
        <mxCell id="2lD2j4Fp4vpnpTw80fRY-111" value="" style="shape=image;verticalLabelPosition=bottom;labelBackgroundColor=#ffffff;verticalAlign=top;aspect=fixed;imageAspect=0;image=data:image/svg+xml,PHN2ZyB4bWxucz0iaHR0cDovL3d3dy53My5vcmcvMjAwMC9zdmciIHdpZHRoPSI2NCIgaGVpZ2h0PSI2NCIgdmlld0JveD0iMCAwIDY0IDY0IiBmaWxsPSJub25lIj4mI3hhOzxwYXRoIGQ9Ik0xLjU4NzcxIDMwLjI1TDE1LjI3ODMgNi41MzcxOUMxNS45MDM1IDUuNDU0MjggMTcuMDU5IDQuNzg3MTkgMTguMzA5NCA0Ljc4NzE5SDQ1LjY5MDZDNDYuOTQxIDQuNzg3MTkgNDguMDk2NSA1LjQ1NDI4IDQ4LjcyMTcgNi41MzcxOUw2Mi40MTIzIDMwLjI1QzYzLjAzNzUgMzEuMzMyOSA2My4wMzc1IDMyLjY2NzEgNjIuNDEyMyAzMy43NUw0OC43MjE3IDU3LjQ2MjhDNDguMDk2NSA1OC41NDU3IDQ2Ljk0MSA1OS4yMTI4IDQ1LjY5MDYgNTkuMjEyOEgxOC4zMDk0QzE3LjA1OSA1OS4yMTI4IDE1LjkwMzUgNTguNTQ1NyAxNS4yNzgzIDU3LjQ2MjhMMS41ODc3MSAzMy43NUMwLjk2MjQ5OCAzMi42NjcxIDAuOTYyNDk4IDMxLjMzMjkgMS41ODc3MSAzMC4yNVoiIGZpbGw9IndoaXRlIiBzdHJva2U9IiNDNUNFREUiLz4mI3hhOzxwYXRoIGZpbGwtcnVsZT0iZXZlbm9kZCIgY2xpcC1ydWxlPSJldmVub2RkIiBkPSJNNDIuNjk0MiAyNC4yNjc2TDMzLjM2OTggMTguODg0MkMzMi41MDM1IDE4LjM4NCAzMS40MzYxIDE4LjM4NCAzMC41Njk4IDE4Ljg4NDJMMjEuMjQ1NSAyNC4yNjc2QzIwLjM3OTEgMjQuNzY3OCAxOS44NDU1IDI1LjY5MjEgMTkuODQ1NSAyNi42OTI1VjM3LjQ1OTNDMTkuODQ1NSAzOC40NTk2IDIwLjM3OTEgMzkuMzg0IDIxLjI0NTUgMzkuODg0MkwzMC41Njk4IDQ1LjI2NzZDMzEuNDM2MSA0NS43Njc4IDMyLjUwMzUgNDUuNzY3OCAzMy4zNjk4IDQ1LjI2NzZMNDIuNjk0MiAzOS44ODQyQzQzLjU2MDUgMzkuMzg0IDQ0LjA5NDIgMzguNDU5NiA0NC4wOTQyIDM3LjQ1OTNWMjYuNjkyNUM0NC4wOTQyIDI1LjY5MjEgNDMuNTYwNSAyNC43Njc4IDQyLjY5NDIgMjQuMjY3NlpNMzEuNzMxOCAyMC42NTA3TDMxLjYxOTggMjAuNzAyOEwyMi44OTggMjUuNzM4M0wzMS45NjcgMzAuOTEyNUw0MS4wNDc5IDI1Ljc0MkwzMi4zMTk4IDIwLjcwMjhDMzIuMTM5MyAyMC41OTg2IDMxLjkyMzkgMjAuNTgxMiAzMS43MzE4IDIwLjY1MDdaTTIxLjk0NTUgMzcuNDU5M1YyNy42MThMMzAuOTE3IDMyLjczNjdMMzAuOTE3OSA0My4wNDM3TDIyLjI5NTUgMzguMDY1NUwyMi4xOTQzIDM3Ljk5NDZDMjIuMDM4MSAzNy44NjI5IDIxLjk0NTUgMzcuNjY3NyAyMS45NDU1IDM3LjQ1OTNaTTQxLjY0NDIgMzguMDY1NUwzMy4wMTc5IDQzLjA0NTlMMzMuMDE3IDMyLjczODFMNDEuOTk0MiAyNy42MjUzVjM3LjQ1OTNMNDEuOTgzMyAzNy41ODIzQzQxLjk0NzQgMzcuNzgzNSA0MS44MjQ2IDM3Ljk2MTMgNDEuNjQ0MiAzOC4wNjU1WiIgZmlsbD0iIzY5NTJDNCIvPiYjeGE7PC9zdmc+;hachureGap=4;" vertex="1" parent="2lD2j4Fp4vpnpTw80fRY-110">
          <mxGeometry x="8" width="64" height="64" as="geometry" />
        </mxCell>
        <mxCell id="2lD2j4Fp4vpnpTw80fRY-112" value="飞腾" style="text;html=1;resizable=0;autosize=1;align=center;verticalAlign=middle;points=[];fillColor=none;strokeColor=none;rounded=0;hachureGap=4;" vertex="1" parent="2lD2j4Fp4vpnpTw80fRY-110">
          <mxGeometry x="20" y="64" width="40" height="20" as="geometry" />
        </mxCell>
        <mxCell id="2lD2j4Fp4vpnpTw80fRY-119" value="" style="group;hachureGap=4;" vertex="1" connectable="0" parent="1">
          <mxGeometry x="-340" y="166" width="64" height="84" as="geometry" />
        </mxCell>
        <mxCell id="2lD2j4Fp4vpnpTw80fRY-120" value="" style="shape=image;verticalLabelPosition=bottom;labelBackgroundColor=#ffffff;verticalAlign=top;aspect=fixed;imageAspect=0;image=data:image/svg+xml,PHN2ZyB4bWxucz0iaHR0cDovL3d3dy53My5vcmcvMjAwMC9zdmciIHdpZHRoPSI2NCIgaGVpZ2h0PSI2NCIgdmlld0JveD0iMCAwIDY0IDY0IiBmaWxsPSJub25lIj4mI3hhOzxwYXRoIGQ9Ik0xLjU4NzcxIDMwLjI1TDE1LjI3ODMgNi41MzcxOUMxNS45MDM1IDUuNDU0MjggMTcuMDU5IDQuNzg3MTkgMTguMzA5NCA0Ljc4NzE5SDQ1LjY5MDZDNDYuOTQxIDQuNzg3MTkgNDguMDk2NSA1LjQ1NDI4IDQ4LjcyMTcgNi41MzcxOUw2Mi40MTIzIDMwLjI1QzYzLjAzNzUgMzEuMzMyOSA2My4wMzc1IDMyLjY2NzEgNjIuNDEyMyAzMy43NUw0OC43MjE3IDU3LjQ2MjhDNDguMDk2NSA1OC41NDU3IDQ2Ljk0MSA1OS4yMTI4IDQ1LjY5MDYgNTkuMjEyOEgxOC4zMDk0QzE3LjA1OSA1OS4yMTI4IDE1LjkwMzUgNTguNTQ1NyAxNS4yNzgzIDU3LjQ2MjhMMS41ODc3MSAzMy43NUMwLjk2MjQ5OCAzMi42NjcxIDAuOTYyNDk4IDMxLjMzMjkgMS41ODc3MSAzMC4yNVoiIGZpbGw9IndoaXRlIiBzdHJva2U9IiNDNUNFREUiLz4mI3hhOzxwYXRoIGZpbGwtcnVsZT0iZXZlbm9kZCIgY2xpcC1ydWxlPSJldmVub2RkIiBkPSJNNDQuNiAyMy41NzE5QzQ0LjYgMjcuMDk4OCAzOC40NjY5IDI5LjExNDkgMzIuMzg3OSAyOS4xOTc0TDMyIDI5LjJDMjUuNzk2OSAyOS4yIDE5LjQgMjcuMTczOSAxOS40IDIzLjU3MTlDMTkuNCAxOS45IDI1LjU1NiAxOC4wNDI5IDMxLjc4MjggMTguMDAwN0gzMi4yMTczQzM4LjQ0NCAxOC4wNDI5IDQ0LjYgMTkuOSA0NC42IDIzLjU3MTlaTTMyIDMyLjdDMjYuNTExMyAzMi43IDIwLjg3MDkgMzEuMzEyIDE5LjY0NTcgMjguODA3NEwxOS41NTg1IDI5LjAxMDRDMTkuNDU0NiAyOS4yODQ3IDE5LjQgMjkuNTczIDE5LjQgMjkuODc1NEMxOS40IDMxLjg0NTIgMjEuODk4OCAzMy4yNzY0IDI1LjI4NzMgMzQuMDcyOEwyNS45NzY0IDM0LjIyMzZDMjYuNzkzMSAzNC4zODk2IDI3LjY1MjQgMzQuNTIwNyAyOC41MzM4IDM0LjYxNTZMMjkuMjk0MyAzNC42ODgxQzI5LjU0OTIgMzQuNzA5MyAyOS44MDU1IDM0LjcyNzUgMzAuMDYyNyAzNC43NDI3TDMwLjgzNjMgMzQuNzc5M0MzMS4yMjM5IDM0Ljc5MzEgMzEuNjEyMyAzNC44IDMyIDM0LjhMMzIuMzg3OSAzNC43OTc3QzMyLjY0NjYgMzQuNzk0NiAzMi45MDU0IDM0Ljc4ODUgMzMuMTYzOCAzNC43NzkzTDMzLjkzNzMgMzQuNzQyN0MzNC4xOTQ1IDM0LjcyNzUgMzQuNDUwOCAzNC43MDkzIDM0LjcwNTggMzQuNjg4MUwzNS40NjYzIDM0LjYxNTZDMzYuMzQ3NyAzNC41MjA3IDM3LjIwNjkgMzQuMzg5NiAzOC4wMjM2IDM0LjIyMzZMMzguNzEyNyAzNC4wNzI4QzQyLjEwMTIgMzMuMjc2NCA0NC42IDMxLjg0NTIgNDQuNiAyOS44NzU0QzQ0LjYgMjkuNDk3NCA0NC41MTQ4IDI5LjE0MTQgNDQuMzU1NiAyOC44MDg4TDQ0LjI0NjUgMjkuMDA5M0M0Mi44MjQ0IDMxLjM4NiAzNy4zNDA0IDMyLjcgMzIgMzIuN1pNMTkuNjQ1NyAzNC40MDc0QzIwLjg3MDkgMzYuOTEyIDI2LjUxMTMgMzguMyAzMiAzOC4zQzM3LjM0MDQgMzguMyA0Mi44MjQ0IDM2Ljk4NiA0NC4yNDY1IDM0LjYwOTNMNDQuMzU1NiAzNC40MDg4QzQ0LjUxNDggMzQuNzQxNCA0NC42IDM1LjA5NzQgNDQuNiAzNS40NzU0QzQ0LjYgMzcuNDQ1MiA0Mi4xMDEyIDM4Ljg3NjQgMzguNzEyNyAzOS42NzI4TDM4LjAyMzYgMzkuODIzNkMzNy4yMDY5IDM5Ljk4OTYgMzYuMzQ3NyA0MC4xMjA3IDM1LjQ2NjMgNDAuMjE1NkwzNC43MDU4IDQwLjI4ODFDMzQuNDUwOCA0MC4zMDkzIDM0LjE5NDUgNDAuMzI3NSAzMy45MzczIDQwLjM0MjdMMzMuMTYzOCA0MC4zNzkzQzMyLjkwNTQgNDAuMzg4NSAzMi42NDY2IDQwLjM5NDYgMzIuMzg3OSA0MC4zOTc3TDMyIDQwLjRDMzEuNjEyMyA0MC40IDMxLjIyMzkgNDAuMzkzMSAzMC44MzYzIDQwLjM3OTNMMzAuMDYyNyA0MC4zNDI3QzI5LjgwNTUgNDAuMzI3NSAyOS41NDkyIDQwLjMwOTMgMjkuMjk0MyA0MC4yODgxTDI4LjUzMzggNDAuMjE1NkMyNy42NTI0IDQwLjEyMDcgMjYuNzkzMSAzOS45ODk2IDI1Ljk3NjQgMzkuODIzNkwyNS4yODczIDM5LjY3MjhDMjEuODk4OCAzOC44NzY0IDE5LjQgMzcuNDQ1MiAxOS40IDM1LjQ3NTRDMTkuNCAzNS4xNzMgMTkuNDU0NiAzNC44ODQ3IDE5LjU1ODUgMzQuNjEwNEwxOS42NDU3IDM0LjQwNzRaTTE5LjY0NTcgNDAuMDA3NEMyMC44NzA5IDQyLjUxMiAyNi41MTEzIDQzLjkgMzIgNDMuOUMzNy4zNDA0IDQzLjkgNDIuODI0NCA0Mi41ODYgNDQuMjQ2NSA0MC4yMDkzTDQ0LjM1NTYgNDAuMDA4OEM0NC41MTQ4IDQwLjM0MTQgNDQuNiA0MC42OTc0IDQ0LjYgNDEuMDc1NEM0NC42IDQzLjA0NTIgNDIuMTAxMiA0NC40NzY0IDM4LjcxMjcgNDUuMjcyOEwzOC4wMjM2IDQ1LjQyMzZDMzcuMjA2OSA0NS41ODk2IDM2LjM0NzcgNDUuNzIwNyAzNS40NjYzIDQ1LjgxNTZMMzQuNzA1OCA0NS44ODgxQzM0LjQ1MDggNDUuOTA5MyAzNC4xOTQ1IDQ1LjkyNzUgMzMuOTM3MyA0NS45NDI3TDMzLjE2MzggNDUuOTc5M0MzMi45MDU0IDQ1Ljk4ODUgMzIuNjQ2NiA0NS45OTQ2IDMyLjM4NzkgNDUuOTk3N0wzMiA0NkMzMS42MTIzIDQ2IDMxLjIyMzkgNDUuOTkzMSAzMC44MzYzIDQ1Ljk3OTNMMzAuMDYyNyA0NS45NDI3QzI5LjgwNTUgNDUuOTI3NSAyOS41NDkyIDQ1LjkwOTMgMjkuMjk0MyA0NS44ODgxTDI4LjUzMzggNDUuODE1NkMyNy42NTI0IDQ1LjcyMDcgMjYuNzkzMSA0NS41ODk2IDI1Ljk3NjQgNDUuNDIzNkwyNS4yODczIDQ1LjI3MjhDMjEuODk4OCA0NC40NzY0IDE5LjQgNDMuMDQ1MiAxOS40IDQxLjA3NTRDMTkuNCA0MC43NzMgMTkuNDU0NiA0MC40ODQ3IDE5LjU1ODUgNDAuMjEwNEwxOS42NDU3IDQwLjAwNzRaTTI4LjgyMDcgMjYuOTA5N0MyNC41NjMyIDI2LjM5MTIgMjEuNSAyNC45MDMzIDIxLjUgMjMuNTcxOUMyMS41IDE4Ljk0MjcgNDIuNSAxOC45NDI3IDQyLjUgMjMuNTcxOUM0Mi41IDI0LjkwMzMgMzkuNDM2OCAyNi4zOTEyIDM1LjE3OTMgMjYuOTA5N0wzNC40MTYgMjYuOTkwOUMzMy42NDEgMjcuMDYxNiAzMi44MzIzIDI3LjEgMzIgMjcuMUMzMS4xNjc4IDI3LjEgMzAuMzU5IDI3LjA2MTYgMjkuNTg0MSAyNi45OTA5TDI4LjgyMDcgMjYuOTA5N1oiIGZpbGw9IiM2OTUyQzQiLz4mI3hhOzwvc3ZnPg==;hachureGap=4;" vertex="1" parent="2lD2j4Fp4vpnpTw80fRY-119">
          <mxGeometry width="64" height="64" as="geometry" />
        </mxCell>
        <mxCell id="2lD2j4Fp4vpnpTw80fRY-121" value="商业存储" style="text;html=1;resizable=0;autosize=1;align=center;verticalAlign=middle;points=[];fillColor=none;strokeColor=none;rounded=0;hachureGap=4;" vertex="1" parent="2lD2j4Fp4vpnpTw80fRY-119">
          <mxGeometry x="2" y="64" width="60" height="20" as="geometry" />
        </mxCell>
        <mxCell id="2lD2j4Fp4vpnpTw80fRY-125" value="" style="group;hachureGap=4;" vertex="1" connectable="0" parent="1">
          <mxGeometry x="-200" y="166" width="100" height="84" as="geometry" />
        </mxCell>
        <mxCell id="2lD2j4Fp4vpnpTw80fRY-126" value="" style="shape=image;verticalLabelPosition=bottom;labelBackgroundColor=#ffffff;verticalAlign=top;aspect=fixed;imageAspect=0;image=data:image/svg+xml,PHN2ZyB4bWxucz0iaHR0cDovL3d3dy53My5vcmcvMjAwMC9zdmciIHdpZHRoPSI2NCIgaGVpZ2h0PSI2NCIgdmlld0JveD0iMCAwIDY0IDY0IiBmaWxsPSJub25lIj4mI3hhOzxwYXRoIGQ9Ik0xLjU4NzcxIDMzLjc1QzAuOTYyNDk4IDMyLjY2NzEgMC45NjI0OTggMzEuMzMyOSAxLjU4NzcxIDMwLjI1TDE1LjI3ODMgNi41MzcxOUMxNS45MDM1IDUuNDU0MjggMTcuMDU5IDQuNzg3MTkgMTguMzA5NCA0Ljc4NzE5SDQ1LjY5MDZDNDYuOTQxIDQuNzg3MTkgNDguMDk2NSA1LjQ1NDI4IDQ4LjcyMTcgNi41MzcxOUw2Mi40MTIzIDMwLjI1QzYzLjAzNzUgMzEuMzMyOSA2My4wMzc1IDMyLjY2NzEgNjIuNDEyMyAzMy43NUw0OC43MjE3IDU3LjQ2MjhDNDguMDk2NSA1OC41NDU3IDQ2Ljk0MSA1OS4yMTI4IDQ1LjY5MDYgNTkuMjEyOEgxOC4zMDk0QzE3LjA1OSA1OS4yMTI4IDE1LjkwMzUgNTguNTQ1NyAxNS4yNzgzIDU3LjQ2MjhMMS41ODc3MSAzMy43NVoiIGZpbGw9IndoaXRlIiBzdHJva2U9IiNDNUNFREUiLz4mI3hhOzxwYXRoIGZpbGwtcnVsZT0iZXZlbm9kZCIgY2xpcC1ydWxlPSJldmVub2RkIiBkPSJNMzYuMTIyNCA0NC40NjQzQzM0LjIwNzUgNDQuOTUyOSAzMi4wMjAyIDQ1LjIyMjIgMjkuOTA4MyA0NS4yMjIyQzI0LjIzIDQ1LjIyMjIgMTggNDMuMjczIDE4IDQwLjM1MjJWMjIuODIxMkMxOCAxNi42MDk4IDQwLjIzOTQgMTYuNDAwMyA0MS43Mzk5IDIyLjE5MjVMMzkuMDc2MSAyNi4wODUyQzM2Ljc0ODMgMjcuMTEyNCAzMy4yNjAyIDI3LjY4ODEgMjkuOTA5NyAyNy42ODgxQzI2LjAxMjEgMjcuNjg4MSAyMS45MjgyIDI2LjkwOSAxOS43MDE0IDI1LjU0NjRWMjguODU4M0wxOS44ODc3IDI5LjA1MzlDMjAuOTk5NiAzMC4yMjQgMjUuMDgzNSAzMS41ODY3IDI5LjkwOTcgMzEuNTg2N0MzMi4wODQ2IDMxLjU4NjcgMzQuMTA4NyAzMS4zMDkzIDM1Ljc5NTEgMzAuODc5OUwzNC4yMjMzIDMzLjE3NjlDMzIuODU3OCAzMy40MDY4IDMxLjM5NjEgMzMuNTM1OSAyOS45MDk3IDMzLjUzNTlDMjUuODI1OCAzMy41MzU5IDIxLjkyODIgMzIuNTYxMyAxOS43MDE0IDMxLjE5ODdWMzQuNzA2MUwxOS44ODc3IDM0LjkwMTdDMjAuOTk5NiAzNi4wNzE4IDI1LjA4MzUgMzcuNDM0NSAyOS45MDk3IDM3LjQzNDVDMzAuNzIyOSAzNy40MzQ1IDMxLjUxNDkgMzcuMzk1OCAzMi4yNzUxIDM3LjMyNTlIMzYuMTIyNFYzOC42MTlDMzQuMjYxIDM5LjA5NCAzMi4xMTI0IDM5LjM3NzUgMjkuOTA5NyAzOS4zNzc1QzI1LjgyNTggMzkuMzc3NSAyMS45MjgyIDM4LjQwMjkgMTkuNzAxNCAzNy4wNDAzVjQwLjM1NTNDMTkuNzAxNCA0MS4xMzQzIDIzLjQxMjcgNDMuMjc2MSAyOS45MDk3IDQzLjI3NjFDMzIuNDExMSA0My4yNzYxIDM0LjQ5OTYgNDIuOTU4MSAzNi4xMjI0IDQyLjUyMjZWNDQuNDY0M1pNNDAuMTE4MSAyMi44MTgxQzQwLjExODEgMjEuODQ2NSAzNi41OTAxIDE5Ljg5NzMgMjkuOTA5NyAxOS44OTczQzIzLjIyOTQgMTkuODk3MyAxOS43MDE0IDIxLjg0NjUgMTkuNzAxNCAyMi44MjEyQzE5LjcwMTQgMjMuNzk1OCAyMy4yMjk0IDI1Ljc0MiAyOS45MDk3IDI1LjczODlDMzYuNTkzIDI1LjczODkgNDAuMTE4MSAyMy43OTI3IDQwLjExODEgMjIuODE4MVoiIGZpbGw9IiM2OTUyQzQiLz4mI3hhOzxwYXRoIGQ9Ik00MS4xMDExIDI2LjQ1NTRDNDEuNDczOSAyNS44NTcxIDQyLjM2MjIgMjYuMTI5NiA0Mi4zOTUyIDI2Ljc3NjlMNDIuMzg4NiAyNi45MjExTDQxLjQ3NCAzMy41NTIxTDQ1LjIwMTUgMzMuNTUzN0M0NS42OTczIDMzLjU1MzcgNDYuMDIgMzQuMDQ2MyA0NS44NjI0IDM0LjQ4NjNMNDUuODAwNCAzNC42MTYyTDM5Ljk5ODggNDQuMTk4NkMzOS42NjEyIDQ0Ljc1NjIgMzguODQ0MSA0NC41ODEgMzguNzE2OCA0My45OTU0TDM4LjcgNDMuODQwNkwzOC42NTk3IDM3LjYxNUMzOC42NTczIDM3LjIyODQgMzguOTY4NiAzNi45MTMgMzkuMzU1MiAzNi45MTA1QzM5LjY5MzUgMzYuOTA4MyAzOS45NzczIDM3LjE0NjQgNDAuMDQ0NiAzNy40NjQ5TDQwLjA1OTcgMzcuNjA1OUw0MC4wODIgNDEuMzU0MUw0My45NTggMzQuOTUyMUw0MC42NzE3IDM0Ljk1MzdDNDAuMjk0MyAzNC45NTM3IDM5Ljk5NDEgMzQuNjU3NCAzOS45NzI4IDM0LjI5NjJMMzkuOTc4MiAzNC4xNTgxTDQwLjU1MiAyOS45ODAxTDM2Ljk5NDEgMzUuNjkyNUMzNi44MTUxIDM1Ljk3OTYgMzYuNDYyMiAzNi4wOTIyIDM2LjE1NyAzNS45Nzg5TDM2LjAyOTggMzUuOTE2NEMzNS43NDI3IDM1LjczNzQgMzUuNjMgMzUuMzg0NSAzNS43NDM0IDM1LjA3OTNMMzUuODA1OSAzNC45NTJMNDEuMTAxMSAyNi40NTU0WiIgZmlsbD0iIzY5NTJDNCIvPiYjeGE7PC9zdmc+;hachureGap=4;" vertex="1" parent="2lD2j4Fp4vpnpTw80fRY-125">
          <mxGeometry x="18" width="64" height="64" as="geometry" />
        </mxCell>
        <mxCell id="2lD2j4Fp4vpnpTw80fRY-127" value="高性能云存储" style="text;html=1;resizable=0;autosize=1;align=center;verticalAlign=middle;points=[];fillColor=none;strokeColor=none;rounded=0;hachureGap=4;" vertex="1" parent="2lD2j4Fp4vpnpTw80fRY-125">
          <mxGeometry y="64" width="100" height="20" as="geometry" />
        </mxCell>
        <mxCell id="2lD2j4Fp4vpnpTw80fRY-131" value="" style="group;hachureGap=4;" vertex="1" connectable="0" parent="1">
          <mxGeometry x="-20" y="162" width="80" height="104" as="geometry" />
        </mxCell>
        <mxCell id="2lD2j4Fp4vpnpTw80fRY-132" value="" style="shape=image;verticalLabelPosition=bottom;labelBackgroundColor=#ffffff;verticalAlign=top;aspect=fixed;imageAspect=0;image=data:image/svg+xml,PHN2ZyB4bWxucz0iaHR0cDovL3d3dy53My5vcmcvMjAwMC9zdmciIHdpZHRoPSI2NCIgaGVpZ2h0PSI2NCIgdmlld0JveD0iMCAwIDY0IDY0IiBmaWxsPSJub25lIj4mI3hhOzxwYXRoIGQ9Ik0xLjU4NzcxIDMzLjc1QzAuOTYyNDk4IDMyLjY2NzEgMC45NjI0OTggMzEuMzMyOSAxLjU4NzcxIDMwLjI1TDE1LjI3ODMgNi41MzcxOUMxNS45MDM1IDUuNDU0MjggMTcuMDU5IDQuNzg3MTkgMTguMzA5NCA0Ljc4NzE5SDQ1LjY5MDZDNDYuOTQxIDQuNzg3MTkgNDguMDk2NSA1LjQ1NDI4IDQ4LjcyMTcgNi41MzcxOUw2Mi40MTIzIDMwLjI1QzYzLjAzNzUgMzEuMzMyOSA2My4wMzc1IDMyLjY2NzEgNjIuNDEyMyAzMy43NUw0OC43MjE3IDU3LjQ2MjhDNDguMDk2NSA1OC41NDU3IDQ2Ljk0MSA1OS4yMTI4IDQ1LjY5MDYgNTkuMjEyOEgxOC4zMDk0QzE3LjA1OSA1OS4yMTI4IDE1LjkwMzUgNTguNTQ1NyAxNS4yNzgzIDU3LjQ2MjhMMS41ODc3MSAzMy43NVoiIGZpbGw9IndoaXRlIiBzdHJva2U9IiNDNUNFREUiLz4mI3hhOzxwYXRoIGZpbGwtcnVsZT0iZXZlbm9kZCIgY2xpcC1ydWxlPSJldmVub2RkIiBkPSJNMzQuNTgzNSAyMS4wOTQyQzM0LjYxNTMgMjAuOTMzIDM0LjYzMiAyMC43NjY0IDM0LjYzMiAyMC41OTZDMzQuNjMyIDE5LjE2MjMgMzMuNDUzNiAxOCAzMiAxOEMzMC41NDYzIDE4IDI5LjM2OCAxOS4xNjIzIDI5LjM2OCAyMC41OTZDMjkuMzY4IDIwLjc2NjQgMjkuMzg0NiAyMC45MzMgMjkuNDE2NCAyMS4wOTQyTDIzLjAyNTggMjQuNjE5N0MyMi41OTA0IDI0LjMwNSAyMi4wNTMyIDI0LjExOTIgMjEuNDcyIDI0LjExOTJDMjAuMDE4NCAyNC4xMTkyIDE4Ljg0IDI1LjI4MTUgMTguODQgMjYuNzE1MkMxOC44NCAyNy45NTggMTkuNzI1NCAyOC45OTY4IDIwLjkwNzkgMjkuMjUxNVYzNS4zMDQ4QzE5LjcyNTQgMzUuNTU5NCAxOC44NCAzNi41OTgzIDE4Ljg0IDM3Ljg0MTFDMTguODQgMzkuMjc0OCAyMC4wMTg0IDQwLjQzNzEgMjEuNDcyIDQwLjQzNzFDMjIuMzAwNyA0MC40MzcxIDIzLjA0IDQwLjA1OTMgMjMuNTIyNCAzOS40Njg4TDI5LjI0NDIgNDIuNjI1NEMyOS4yMDIyIDQyLjgxNjUgMjkuMTggNDMuMDE1IDI5LjE4IDQzLjIxODVDMjkuMTggNDQuNzU0NyAzMC40NDI1IDQ2IDMyIDQ2QzMzLjU1NzQgNDYgMzQuODIgNDQuNzU0NyAzNC44MiA0My4yMTg1QzM0LjgyIDQzLjAxNSAzNC43OTc4IDQyLjgxNjUgMzQuNzU1NyA0Mi42MjU0TDQwLjQ3NzUgMzkuNDY4OEM0MC45NiA0MC4wNTkzIDQxLjY5OTIgNDAuNDM3MSA0Mi41MjggNDAuNDM3MUM0My45ODE2IDQwLjQzNzEgNDUuMTYgMzkuMjc0OCA0NS4xNiAzNy44NDFDNDUuMTYgMzYuNTk4MiA0NC4yNzQ1IDM1LjU1OTQgNDMuMDkxOSAzNS4zMDQ4VjI5LjI1MTVDNDQuMjc0NSAyOC45OTY4IDQ1LjE2IDI3Ljk1OCA0NS4xNiAyNi43MTUyQzQ1LjE2IDI1LjI4MTUgNDMuOTgxNiAyNC4xMTkyIDQyLjUyOCAyNC4xMTkyQzQxLjk0NjggMjQuMTE5MiA0MS40MDk1IDI0LjMwNSA0MC45NzQxIDI0LjYxOTdMMzQuNTgzNSAyMS4wOTQyWk0yNC4xMDQgMjYuNzE1MkMyNC4xMDQgMjcuMDcwNCAyNC4wMzE3IDI3LjQwODkgMjMuOTAwOCAyNy43MTcyTDI1Ljc3MjcgMjguNzk5N0MyNS40ODY0IDI5LjM1NTcgMjUuMjcyNCAyOS45NTUgMjUuMTQzMSAzMC41ODUxTDIyLjc4OCAyOS4yMjMyVjM1LjU5MjRDMjMuNTc0NyAzNi4wNDEyIDI0LjEwNCAzNi44ODAyIDI0LjEwNCAzNy44NDExTDMwLjA2MTIgNDEuMTk4N0MzMC4zNDQ4IDQwLjkzMzggMzAuNjg0MSA0MC43MjY0IDMxLjA2IDQwLjU5NTRWMzguOTM3NEMzMS4zNjc1IDM4Ljk3ODcgMzEuNjgxMiAzOSAzMiAzOUMzMi4zMTg4IDM5IDMyLjYzMjUgMzguOTc4NyAzMi45NCAzOC45Mzc0VjQwLjU5NTRDMzMuMzE1OSA0MC43MjY0IDMzLjY1NTIgNDAuOTMzOCAzMy45Mzg3IDQxLjE5ODdMMzkuODk2IDM3Ljg0MTFWMzcuODQxQzM5Ljg5NiAzNi44ODAxIDQwLjQyNTMgMzYuMDQxMiA0MS4yMTIgMzUuNTkyM1YyOS43NjE1TDM4LjkzMTQgMzEuMDE2QzM4Ljg0MDggMzAuMzcxOCAzOC42NjI0IDI5Ljc1NTcgMzguNDA4OSAyOS4xODAzTDQwLjMyMDEgMjguMTI5QzQwLjA1MTggMjcuNzIyMiAzOS44OTYgMjcuMjM2NyAzOS44OTYgMjYuNzE1MkMzOS44OTYgMjYuNDc2NyAzOS45Mjg2IDI2LjI0NTcgMzkuOTg5NiAyNi4wMjYzTDMzLjc2NzYgMjIuNTE5NUMzMy41Mjc5IDIyLjczNCAzMy4yNDc4IDIyLjkwNTUgMzIuOTQgMjMuMDIxNlYyNS4wNjI2QzMyLjYzMjUgMjUuMDIxMyAzMi4zMTg4IDI1IDMyIDI1QzMxLjY4MTIgMjUgMzEuMzY3NSAyNS4wMjEzIDMxLjA2IDI1LjA2MjZWMjMuMDIxNkMzMC43NTIyIDIyLjkwNTUgMzAuNDcyMSAyMi43MzQgMzAuMjMyMyAyMi41MTk1TDI0LjAxMDMgMjYuMDI2M0MyNC4wNzE0IDI2LjI0NTcgMjQuMTA0IDI2LjQ3NjcgMjQuMTA0IDI2LjcxNTJaTTM2LjkwOCAzMC4wNjc0QzM3LjEyODQgMzAuMDUyNCAzNy4zMjkzIDMwLjE5NDQgMzcuMzkwOCAzMC40MDg1QzM3LjUxOTUgMzAuOTI4MiAzNy42IDMxLjQ2NDIgMzcuNiAzMi4wMDAyQzM3LjYgMzIuNTM2MiAzNy41MzU2IDMzLjA1NiAzNy4zOTA4IDMzLjU3NThDMzcuMzI2NCAzMy43ODY5IDM3LjEzMzMgMzMuOTMzMSAzNi45MDggMzMuOTE2OEMzNi41NTQgMzMuOTAwNiAzNi4yMTYxIDM0LjA3OTMgMzYuMDM5MSAzNC40MDQxQzM1Ljg2NDEgMzQuNzE5OSAzNS44NzY1IDM1LjEwNzQgMzYuMDcxMyAzNS40MTEyQzM2LjIgMzUuNjA2MSAzNi4xODM5IDM1Ljg0OTcgMzYuMDIzIDM2LjAxMjFDMzUuMjk4OSAzNi43NzU1IDM0LjM4MTYgMzcuMzI3OCAzMy4zNjc4IDM3LjU4NzdDMzMuMTU4NiAzNy42MzY0IDMyLjkzMzMgMzcuNTIyNyAzMi44MzY4IDM3LjMyNzhDMzIuNjc1OSAzNy4wMDI5IDMyLjM1NCAzNi43OTE4IDMyIDM2Ljc5MThDMzEuNjQ2IDM2Ljc5MTggMzEuMzI0MSAzNy4wMDI5IDMxLjE2MzIgMzcuMzI3OEMzMS4wNjY3IDM3LjUzODkgMzAuODQxNCAzNy42MzY0IDMwLjYzMjIgMzcuNTg3N0MyOS42MTg0IDM3LjMyNzggMjguNzAxMSAzNi43NzU1IDI3Ljk3NyAzNi4wMTIxQzI3LjgyNTMgMzUuODQ3MSAyNy44MDU0IDM1LjU5ODcgMjcuOTI4NyAzNS40MTEyQzI4LjEyMTggMzUuMTE4OCAyOC4xMzc5IDM0LjcyOSAyNy45NjA5IDM0LjQwNDFDMjcuNzgzOSAzNC4wNzkzIDI3LjQ0NiAzMy45MDA2IDI3LjA5MiAzMy45MTY4QzI2Ljg2NjcgMzMuOTMzMSAyNi42NzM2IDMzLjc4NjkgMjYuNjA5MiAzMy41NzU4QzI2LjQ2NDQgMzMuMDcyMiAyNi40IDMyLjUzNjIgMjYuNCAzMi4wMDAyQzI2LjQgMzEuNDY0MiAyNi40NjQ0IDMwLjkyODIgMjYuNjA5MiAzMC40MDg1QzI2LjY3MDcgMzAuMTk0NCAyNi44NzE2IDMwLjA1MjQgMjcuMDkyIDMwLjA2NzRDMjcuNDQ2IDMwLjA5OTggMjcuNzgzOSAyOS45MjEyIDI3Ljk2MDkgMjkuNTk2M0MyOC4xMzc5IDI5LjI3MTUgMjguMTIxOCAyOC44ODE3IDI3LjkyODcgMjguNTg5M0MyNy44IDI4LjM5NDQgMjcuODE2MSAyOC4xNTA3IDI3Ljk3NyAyNy45ODgzQzI4LjcwMTEgMjcuMjI0OSAyOS42MTg0IDI2LjY3MjcgMzAuNjMyMiAyNi40MTI4QzMwLjg0NyAyNi4zNjg2IDMxLjA2NDUgMjYuNDc1MSAzMS4xNjMyIDI2LjY3MjdDMzEuMzI0MSAyNi45OTc1IDMxLjY0NiAyNy4yMDg3IDMyIDI3LjIwODdDMzIuMzU0IDI3LjIwODcgMzIuNjc1OSAyNi45OTc1IDMyLjgzNjggMjYuNjcyN0MzMi45MzAyIDI2LjQ2OTcgMzMuMTUyMSAyNi4zNjExIDMzLjM2NzggMjYuNDEyOEMzNC4zODE2IDI2LjY3MjcgMzUuMjk4OSAyNy4yMjQ5IDM2LjAyMyAyNy45ODgzQzM2LjE3NDcgMjguMTUzMyAzNi4xOTQ2IDI4LjQwMTggMzYuMDcxMyAyOC41ODkzQzM1Ljg3ODIgMjguODgxNyAzNS44NjIxIDI5LjI4NzcgMzYuMDM5MSAyOS41OTYzQzM2LjIxNjEgMjkuOTA0OSAzNi41NTQgMzAuMDk5OCAzNi45MDggMzAuMDY3NFpNMzQuNDM1MSAzMy40ODMxQzM0LjYzOTggMzMuMDg3NiAzNS4wMTA3IDMyLjgyMzkgMzUuNDMyOCAzMi43NThDMzUuNTIyNCAzMi4yNTcxIDM1LjUyMjQgMzEuNzQyOSAzNS40MzI4IDMxLjI1NTJDMzUuMDEwNyAzMS4xODkzIDM0LjY1MjYgMzAuOTI1NiAzNC40MzUxIDMwLjUzMDFDMzQuMjE3NyAzMC4xMzQ3IDM0LjE5MjEgMjkuNjczMyAzNC4zNDU2IDI5LjI1MTRDMzMuOTg3NCAyOC45MDg3IDMzLjU2NTMgMjguNjU4MiAzMy4xMDQ4IDI4LjVDMzIuODM2MiAyOC44NDI3IDMyLjQzOTcgMjkuMDUzNyAzMi4wMDQ4IDI5LjA1MzdDMzEuNTY5OSAyOS4wNTM3IDMxLjE3MzQgMjguODU1OSAzMC45MDQ4IDI4LjVDMzAuNDQ0MyAyOC42NTgyIDMwLjAyMjIgMjguOTA4NyAyOS42NjQgMjkuMjUxNEMyOS44MzAzIDI5LjY3MzMgMjkuNzkxOSAzMC4xMzQ3IDI5LjU3NDUgMzAuNTMwMUMyOS4zNjk4IDMwLjkxMjQgMjguOTk4OSAzMS4xNzYxIDI4LjU3NjcgMzEuMjU1MkMyOC40NzQ0IDMxLjc1NjEgMjguNDc0NCAzMi4yNTcxIDI4LjU3NjcgMzIuNzU4QzI4Ljk5ODkgMzIuODIzOSAyOS4zNTcgMzMuMDg3NiAyOS41NzQ1IDMzLjQ4MzFDMjkuNzkxOSAzMy44NjUzIDI5LjgxNzUgMzQuMzI2NyAyOS42NjQgMzQuNzQ4NkMzMC4wMjIyIDM1LjA5MTMgMzAuNDQ0MyAzNS4zNDE4IDMwLjkwNDggMzUuNUMzMS4xNjg5IDM1LjE1MDQgMzEuNTc0OCAzNC45NDU5IDMyLjAwNDggMzQuOTQ1OUMzMi40MzQ4IDM0Ljk0NTkgMzIuODQwNyAzNS4xNTA0IDMzLjEwNDggMzUuNUMzMy41NjUzIDM1LjM0MTggMzMuOTg3NCAzNS4wOTEzIDM0LjM0NTYgMzQuNzQ4NkMzNC4xOTIxIDM0LjMzOTkgMzQuMjE3NyAzMy44NjUzIDM0LjQzNTEgMzMuNDgzMVpNMzIgMzMuNEMzMS4yMjY4IDMzLjQgMzAuNiAzMi43NzMyIDMwLjYgMzJDMzAuNiAzMS4yMjY4IDMxLjIyNjggMzAuNiAzMiAzMC42QzMyLjc3MzIgMzAuNiAzMy40IDMxLjIyNjggMzMuNCAzMkMzMy40IDMyLjc3MzIgMzIuNzczMiAzMy40IDMyIDMzLjRaIiBmaWxsPSIjNjk1MkM0Ii8+JiN4YTs8L3N2Zz4=;hachureGap=4;" vertex="1" parent="2lD2j4Fp4vpnpTw80fRY-131">
          <mxGeometry x="8" width="64" height="64" as="geometry" />
        </mxCell>
        <mxCell id="2lD2j4Fp4vpnpTw80fRY-133" value="&lt;span&gt;网络&lt;/span&gt;" style="text;html=1;resizable=0;autosize=1;align=center;verticalAlign=middle;points=[];fillColor=none;strokeColor=none;rounded=0;hachureGap=4;" vertex="1" parent="2lD2j4Fp4vpnpTw80fRY-131">
          <mxGeometry x="20" y="74" width="40" height="20" as="geometry" />
        </mxCell>
        <mxCell id="2lD2j4Fp4vpnpTw80fRY-136" value="数字&lt;br&gt;原生&lt;br&gt;引擎&lt;br&gt;EOS" style="rounded=0;whiteSpace=wrap;html=1;shadow=0;fontSize=14;fontColor=#6952C4;strokeColor=#6952C4;fillColor=#F6F5FC;hachureGap=4;" vertex="1" parent="1">
          <mxGeometry x="-1200" y="30" width="110" height="110" as="geometry" />
        </mxCell>
        <mxCell id="2lD2j4Fp4vpnpTw80fRY-137" value="云&lt;br&gt;基础&lt;br&gt;设施" style="rounded=0;whiteSpace=wrap;html=1;shadow=0;fontSize=14;fontColor=#6952C4;strokeColor=#6952C4;fillColor=#F6F5FC;hachureGap=4;" vertex="1" parent="1">
          <mxGeometry x="-1200" y="159" width="110" height="110" as="geometry" />
        </mxCell>
        <mxCell id="2lD2j4Fp4vpnpTw80fRY-138" value="云&lt;br&gt;原&lt;br&gt;生&lt;br&gt;服&lt;br&gt;务" style="rounded=0;whiteSpace=wrap;html=1;shadow=0;fontSize=14;fontColor=#6952C4;strokeColor=#6952C4;fillColor=#F6F5FC;hachureGap=4;" vertex="1" parent="1">
          <mxGeometry x="-1200" y="-600" width="110" height="618" as="geometry" />
        </mxCell>
      </root>
    </mxGraphModel>
  </diagram>
</mxfile>
